<svg width="180" height="47" viewBox="0 0 180 47" fill="none" xmlns="http://www.w3.org/2000/svg">
<g clip-path="url(#clip0_4417_1884)">
<path fill-rule="evenodd" clip-rule="evenodd" d="M40.8067 7.18261H47.3304V2.03744H40.8067V7.18261ZM37.0896 24.534C34.2963 24.534 33.312 23.6551 33.312 20.4006C33.312 17.1461 34.2963 16.2349 37.0896 16.2349C39.883 16.2349 40.8668 17.1461 40.8668 20.4006C40.8668 23.6551 39.883 24.534 37.0896 24.534ZM37.0887 9.52297C30.4241 9.52297 26.8449 14.2049 26.8449 20.4053C26.8449 26.6058 30.4241 31.2457 37.0887 31.2457C43.7534 31.2457 47.3328 26.6058 47.3328 20.4053C47.3328 14.2049 43.7534 9.52297 37.0887 9.52297ZM47.3334 44.0872V47.0063H40.8071L40.7871 44.0872C40.7871 41.9935 39.1315 40.296 37.0894 40.296L34.2425 40.2757V33.5843H37.0894C42.747 33.5843 47.3334 38.2866 47.3334 44.0872ZM179.154 9.52297V16.2144H169.514V36.0315H162.987V16.2154C162.987 12.5193 165.911 9.52297 169.515 9.52297H179.154ZM146.575 29.3401C142.156 29.3401 140.601 27.8989 140.601 22.7515C140.601 17.6041 142.156 16.2144 146.575 16.2144C150.994 16.2144 152.549 17.6041 152.549 22.7515C152.549 27.8989 150.994 29.3401 146.575 29.3401ZM146.578 9.52354C138.446 9.52354 134.078 15.1856 134.078 22.7521C134.078 30.3184 138.446 36.0321 146.578 36.0321C154.712 36.0321 159.079 30.3184 159.079 22.7521C159.079 15.1856 154.712 9.52354 146.578 9.52354ZM117.55 29.3401C113.384 29.3401 111.577 28.0532 111.577 22.7515C111.577 17.5014 113.384 16.2144 117.55 16.2144C121.718 16.2144 123.525 17.5014 123.525 22.7515C123.525 28.0532 121.718 29.3401 117.55 29.3401ZM123.525 12.4568C121.818 10.6552 119.308 9.52294 116.296 9.52294C108.414 9.52294 105.05 15.185 105.05 22.7515C105.05 30.3178 108.414 36.0315 116.296 36.0315C119.308 36.0315 121.818 34.8992 123.525 33.0462V36.0315H130.051V0H123.525V12.4568ZM101.163 16.2159V36.0321H94.6366V16.215H84.0938V36.0321H77.5674V16.2159C77.5674 12.5199 80.4899 9.52354 84.095 9.52354H94.6356C98.2406 9.52354 101.163 12.5199 101.163 16.2159ZM57.1819 20.1775C57.4828 17.398 58.9391 16.2144 61.9511 16.2144C65.0638 16.2144 66.5195 17.2437 66.7207 20.1775H57.1819ZM62.0504 9.52297C53.7165 9.52297 50.6038 15.4421 50.6038 22.8029C50.6038 27.6412 52.2608 36.0315 63.8577 36.0315C65.7654 36.0315 67.6736 36.0315 71.5892 35.1049V28.5164C68.1254 29.3401 65.8661 29.3401 64.3596 29.3401C59.6407 29.3401 57.9843 27.8989 57.4316 25.3249H73.2962V22.2369C73.2962 15.0303 70.1836 9.52297 62.0504 9.52297ZM11.2485 29.958C7.83492 29.958 6.52952 29.3405 6.52952 27.2811C6.52952 25.2226 7.83492 24.6049 11.2485 24.6049C14.6621 24.6049 15.9675 25.2226 15.9675 27.2811C15.9675 29.3405 14.6621 29.958 11.2485 29.958ZM22.4913 16.2154C22.4913 12.5193 19.5689 9.52297 15.9639 9.52297H2.91215V16.2144H15.9649V21.1043C14.7101 19.7144 12.7518 18.5306 8.98662 18.5306C2.86194 18.5306 0 22.5453 0 27.2808C0 32.0165 2.86194 36.0315 8.98662 36.0315C12.7518 36.0315 14.7101 34.7959 15.9649 33.458C15.9649 34.8794 17.0887 36.0315 18.4749 36.0315H25.6401V29.3401H22.4913V16.2154Z" fill="#332DE6"/>
</g>
<defs>
<clipPath id="clip0_4417_1884">
<rect width="180" height="47.0064" fill="white"/>
</clipPath>
</defs>
</svg>
