<!-- Generated by weiling.cn -->
<svg version="1.1" xmlns="http://www.w3.org/2000/svg" width="32" height="32" viewBox="0 0 32 32">
<path fill="currentColor" d="M17.257 16.997v7.024l2.299-2.299 1.78 1.78-5.336 5.335-5.336-5.335 1.78-1.78 2.299 2.299v-7.024h2.515zM16 3.163c2.159 0 4.243 0.794 5.856 2.23s2.641 3.415 2.89 5.56c1.565 0.427 2.93 1.39 3.857 2.721s1.356 2.946 1.214 4.561c-0.143 1.616-0.849 3.13-1.995 4.278s-2.659 1.857-4.274 2.003v-2.533c0.579-0.083 1.135-0.28 1.637-0.58s0.939-0.697 1.286-1.168c0.347-0.471 0.596-1.006 0.733-1.574s0.161-1.158 0.068-1.735c-0.093-0.577-0.3-1.13-0.609-1.627s-0.714-0.926-1.19-1.264c-0.477-0.338-1.016-0.578-1.587-0.706s-1.161-0.14-1.736-0.037c0.197-0.917 0.186-1.866-0.031-2.779s-0.636-1.765-1.226-2.494c-0.589-0.73-1.335-1.318-2.181-1.722s-1.772-0.614-2.71-0.614c-0.938 0-1.864 0.21-2.71 0.614s-1.592 0.993-2.181 1.722c-0.589 0.73-1.008 1.582-1.226 2.494s-0.228 1.862-0.031 2.779c-1.147-0.216-2.333 0.034-3.297 0.693s-1.626 1.674-1.842 2.821c-0.215 1.147 0.034 2.334 0.693 3.297s1.674 1.626 2.821 1.842l0.226 0.038v2.533c-1.616-0.146-3.129-0.854-4.275-2.002s-1.852-2.662-1.995-4.278c-0.143-1.616 0.287-3.23 1.213-4.562s2.292-2.295 3.857-2.721c0.249-2.145 1.277-4.124 2.89-5.56s3.697-2.23 5.856-2.23z"></path>
</svg>
