<!-- Generated by weiling.cn -->
<svg version="1.1" xmlns="http://www.w3.org/2000/svg" width="32" height="32" viewBox="0 0 32 32">
<path fill="currentColor" d="M9 7.6v-4.2c0-0.371 0.148-0.727 0.41-0.99s0.619-0.41 0.99-0.41h16.8c0.371 0 0.727 0.147 0.99 0.41s0.41 0.619 0.41 0.99v19.6c0 0.371-0.148 0.727-0.41 0.99s-0.618 0.41-0.99 0.41h-4.2v4.2c0 0.773-0.63 1.4-1.41 1.4h-16.78c-0.185 0.001-0.368-0.034-0.539-0.104s-0.326-0.173-0.457-0.303c-0.131-0.13-0.235-0.285-0.306-0.455s-0.108-0.353-0.108-0.538l0.004-19.6c0-0.773 0.63-1.4 1.41-1.4h4.186zM6.204 10.4l-0.004 16.8h14v-16.8h-13.996zM11.8 7.6h11.2v14h2.8v-16.8h-14v2.8z"></path>
</svg>
