<!-- Generated by weiling.cn -->
<svg version="1.1" xmlns="http://www.w3.org/2000/svg" width="32" height="32" viewBox="0 0 32 32">
<path fill="currentColor" d="M16 30c-7.732 0-14-6.268-14-14s6.268-14 14-14c7.732 0 14 6.268 14 14s-6.268 14-14 14zM16 27.2c2.97 0 5.819-1.18 7.919-3.28s3.28-4.949 3.28-7.919-1.18-5.819-3.28-7.92c-2.1-2.1-4.949-3.28-7.919-3.28s-5.819 1.18-7.92 3.28c-2.1 2.1-3.28 4.949-3.28 7.92s1.18 5.819 3.28 7.919c2.1 2.1 4.949 3.28 7.92 3.28zM11.8 10.4h8.4l3.5 4.9-7.7 7.7-7.7-7.7 3.5-4.9z"></path>
</svg>
