<!-- Generated by weiling.cn -->
<svg version="1.1" xmlns="http://www.w3.org/2000/svg" width="32" height="32" viewBox="0 0 32 32">
<path fill="currentColor" d="M27.257 17.871h-2.495v-8.434l-9.889 8.856-10.068-8.883v14.699h12.473v2.495h-13.721c-0.331 0-0.648-0.131-0.882-0.365s-0.365-0.551-0.365-0.882v-19.957c0-0.331 0.131-0.648 0.365-0.882s0.551-0.365 0.882-0.365h22.452c0.331 0 0.648 0.131 0.882 0.365s0.365 0.551 0.365 0.882v12.473zM5.443 6.645l9.417 8.31 9.281-8.31h-18.699zM23.515 27.85l-4.411-4.411 1.765-1.764 2.646 2.647 4.411-4.411 1.764 1.764-6.174 6.174z"></path>
</svg>
