<!-- Generated by weiling.cn -->
<svg version="1.1" xmlns="http://www.w3.org/2000/svg" width="32" height="32" viewBox="0 0 32 32">
<path fill="currentColor" d="M4.285 4.307l16.111-2.301c0.091-0.013 0.184-0.006 0.272 0.019s0.17 0.070 0.239 0.131 0.125 0.135 0.163 0.218c0.038 0.084 0.058 0.174 0.058 0.266v26.718c0 0.092-0.020 0.182-0.058 0.266s-0.094 0.158-0.163 0.218c-0.069 0.060-0.151 0.105-0.239 0.131s-0.18 0.033-0.271 0.020l-16.113-2.301c-0.306-0.044-0.585-0.196-0.787-0.429s-0.314-0.531-0.314-0.84v-20.848c0-0.309 0.111-0.607 0.314-0.84s0.483-0.385 0.789-0.429zM5.747 6.689v18.623l12.817 1.832v-22.286l-12.817 1.832zM22.409 24.972h3.845v-17.944h-3.845v-2.563h5.127c0.34 0 0.666 0.135 0.906 0.375s0.375 0.566 0.375 0.906v20.507c0 0.34-0.135 0.666-0.375 0.906s-0.566 0.375-0.906 0.375h-5.127v-2.563zM13.694 16l3.589 5.127h-3.076l-2.051-2.93-2.051 2.93h-3.076l3.589-5.127-3.589-5.127h3.076l2.051 2.93 2.051-2.93h3.076l-3.589 5.127z"></path>
</svg>
