<svg width="16" height="16" viewBox="0 0 16 16" fill="none" xmlns="http://www.w3.org/2000/svg">
<g clip-path="url(#clip0_7097_803)">
<path d="M13.3333 1.33333C13.7013 1.33333 14 1.632 14 2V4.50467L12.6667 5.838V2.66667H3.33333V13.3333H12.6667V11.4947L14 10.1613V14C14 14.368 13.7013 14.6667 13.3333 14.6667H2.66667C2.29867 14.6667 2 14.368 2 14V2C2 1.632 2.29867 1.33333 2.66667 1.33333H13.3333ZM14.5187 5.872L15.4613 6.81467L10.276 12L9.332 11.9987L9.33333 11.0573L14.5187 5.872ZM8.66667 8V9.33333H5.33333V8H8.66667ZM10.6667 5.33333V6.66667H5.33333V5.33333H10.6667Z" fill="black"/>
</g>
<defs>
<clipPath id="clip0_7097_803">
<rect width="16" height="16" fill="white"/>
</clipPath>
</defs>
</svg>
