<svg width="16" height="16" viewBox="0 0 16 16" fill="none" xmlns="http://www.w3.org/2000/svg">
<g clip-path="url(#clip0_4956_17154)">
<path d="M9.65375 6.74802C9.32975 6.84082 8.97375 6.84242 8.63935 6.82802C8.25135 6.81202 7.84015 6.76242 7.48175 6.60402C7.18735 6.47202 6.95055 6.23602 7.07375 5.89442C7.16175 5.65362 7.35535 5.43842 7.57855 5.31682C7.83055 5.18082 8.10655 5.20322 8.35775 5.32642C8.64095 5.46482 8.87535 5.68962 9.08815 5.91682C9.20015 6.03682 9.30655 6.16002 9.41215 6.28482C9.46015 6.34242 9.78895 6.67122 9.65375 6.74802ZM15.0337 6.86482C14.5361 6.74962 13.9481 6.79042 13.4489 6.71122C12.6625 6.58482 11.4921 5.66882 10.8569 4.73682C10.4169 4.08962 10.2057 3.43042 9.86895 2.62722C9.63295 2.06642 9.12015 0.292024 8.40255 1.12322C8.10655 1.46482 7.77615 2.59042 7.53455 2.57442C7.35615 2.61602 7.32655 2.26722 7.27055 2.11842C7.16655 1.84722 7.11295 1.53442 6.97455 1.27842C6.86495 1.07522 6.72015 0.830424 6.49855 0.731224C6.10415 0.528824 5.62895 1.13922 5.39295 1.86482C5.29215 2.25362 4.61375 3.00722 4.31775 3.18962C2.97375 4.01922 0.275349 4.89282 0.000149089 7.80322C-0.000650911 7.81522 0.000149089 7.85122 0.0457491 7.81922C0.368149 7.58562 4.01775 4.95682 1.67535 10.0384C0.240149 13.1512 7.16895 15.1336 7.52495 15.1424C7.57295 15.1424 7.56895 15.1208 7.57055 15.1064C8.12415 10.1384 13.5857 10.6608 14.8577 9.47122C16.1177 8.29202 16.1441 7.15122 15.0337 6.86482Z" fill="#FA5320"/>
</g>
<defs>
<clipPath id="clip0_4956_17154">
<rect width="16" height="16" fill="white"/>
</clipPath>
</defs>
</svg>
