<svg width="16" height="16" viewBox="0 0 16 16" fill="none" xmlns="http://www.w3.org/2000/svg">
<path d="M11.7328 5.26595V3.3611C12.23 3.12622 12.5784 2.62322 12.5784 2.03944V1.99543C12.5784 1.18984 11.9192 0.530702 11.1137 0.530702H11.0697C10.2641 0.530702 9.60488 1.18984 9.60488 1.99543V2.03944C9.60488 2.62322 9.95333 3.12629 10.4505 3.36114V5.26599C9.71022 5.38036 9.03381 5.68567 8.47571 6.135L3.24571 2.06655C3.28011 1.93406 3.30427 1.79755 3.30442 1.65431C3.3056 0.74183 2.56686 0.00118124 1.65435 1.31999e-06C0.74183 -0.00113972 0.00117947 0.737631 1.23546e-06 1.65011C-0.00110262 2.56259 0.737631 3.30324 1.65015 3.30438C1.94754 3.30475 2.22276 3.22029 2.46403 3.08308L7.60879 7.08531C7.17121 7.74574 6.915 8.53685 6.915 9.38844C6.915 10.2801 7.19663 11.1047 7.67266 11.7831L6.10804 13.3477C5.98436 13.3106 5.85596 13.2846 5.72011 13.2846C4.97033 13.2846 4.36243 13.8925 4.36243 14.6423C4.36243 15.3921 4.97033 16 5.72011 16C6.46997 16 7.0778 15.3921 7.0778 14.6423C7.0778 14.5065 7.05187 14.3781 7.01474 14.2544L8.56241 12.7068C9.26491 13.2431 10.1397 13.5652 11.0918 13.5652C13.3984 13.5652 15.2684 11.6952 15.2684 9.38844C15.2684 7.30027 13.7344 5.5751 11.7328 5.26595ZM11.0918 11.5298C9.90913 11.5298 8.95027 10.5711 8.95027 9.38844C8.95027 8.20583 9.90912 7.24708 11.0918 7.24708C12.2743 7.24708 13.2331 8.20582 13.2331 9.38844C13.2331 10.5711 12.2743 11.5298 11.0918 11.5298Z" fill="#FF5C35"/>
</svg>
