<svg width="16" height="16" viewBox="0 0 16 16" fill="none" xmlns="http://www.w3.org/2000/svg">
<rect width="16" height="16" rx="2" fill="#FECF40"/>
<path d="M8.5561 3L2.5 12.978H5.7434C6.1766 12.978 6.60239 12.8694 6.9776 12.6655C7.38362 12.4445 7.69095 12.1234 7.93037 11.734C8.21053 11.2786 8.48328 10.8183 8.7585 10.3605L9.46444 9.18851L8.5536 7.67954L8.15003 8.32168C7.68968 9.08228 7.25403 9.86119 6.77765 10.612C6.53821 10.988 6.22473 11.3446 5.76315 11.4361C5.69403 11.4495 5.62245 11.4569 5.55087 11.4593C5.45584 11.463 5.36081 11.4605 5.26578 11.4605L8.5561 5.92272L12.7782 13H14V11.9599L13.9716 11.9135L8.5561 3Z" fill="black"/>
</svg>
