<svg width="16" height="16" viewBox="0 0 16 16" fill="none" xmlns="http://www.w3.org/2000/svg">
<path fill-rule="evenodd" clip-rule="evenodd" d="M9.4624 5.1904C8.99316 4.96559 8.47935 4.84923 7.95904 4.84992C6.03584 4.84992 4.47744 6.40896 4.47744 8.33152C4.47744 10.2541 6.03648 11.8131 7.95904 11.8131C9.26784 11.8131 10.4086 11.0906 11.0032 10.0224L10.1638 9.55616C9.9454 9.94933 9.62578 10.2769 9.2381 10.505C8.85043 10.733 8.40881 10.8532 7.95904 10.8531C6.56608 10.8531 5.43744 9.72416 5.43744 8.33152C5.43744 6.93888 6.5664 5.80992 7.95904 5.80992C8.33591 5.80933 8.70809 5.89354 9.048 6.05632L9.4624 5.1904ZM11.1296 0.6352V8.87904H10.1344V0.288C9.45472 0.10016 8.736 0 8 0C3.58176 0 0 3.58176 0 8C0 12.4182 3.58176 16 8 16C12.4182 16 16 12.4182 16 8C16 4.69216 13.9923 1.8528 11.129 0.63488L11.1296 0.6352Z" fill="#0ABA9F"/>
</svg>
