<svg width="16" height="16" viewBox="0 0 16 16" fill="none" xmlns="http://www.w3.org/2000/svg">
<rect width="16" height="16" rx="2" fill="#7D62EC"/>
<g clip-path="url(#clip0_4956_17148)">
<path d="M11.4284 10.475C11.4284 11.134 11.2773 11.7069 10.9752 12.1935C10.6729 12.6802 10.2316 13.0553 9.65118 13.3189C9.07555 13.5825 8.37521 13.7143 7.55016 13.7143C7.18559 13.7143 6.82822 13.6889 6.47805 13.6382C6.13268 13.5876 5.79929 13.5141 5.4779 13.4177C5.16131 13.3163 4.8591 13.1921 4.57129 13.0451V10.8552C5.07017 11.0884 5.58823 11.2988 6.12548 11.4864C6.66273 11.6739 7.19519 11.7677 7.72284 11.7677C8.08741 11.7677 8.38001 11.717 8.60067 11.6156C8.82613 11.5142 8.98924 11.3748 9.08995 11.1974C9.1907 11.02 9.24106 10.8172 9.24106 10.5891C9.24106 10.3103 9.1523 10.072 8.97484 9.87433C8.79733 9.67664 8.55271 9.49159 8.24091 9.31927C7.93391 9.14691 7.58613 8.96186 7.19758 8.76417C6.95294 8.64253 6.68672 8.49552 6.3989 8.32316C6.11109 8.14572 5.83767 7.93028 5.57864 7.6768C5.3196 7.42337 5.10614 7.11668 4.93825 6.75677C4.77516 6.39178 4.69361 5.95582 4.69361 5.4489C4.69361 4.78483 4.83751 4.21708 5.12533 3.74564C5.41314 3.2742 5.82328 2.91429 6.35573 2.6659C6.89298 2.41244 7.52617 2.28571 8.2553 2.28571C8.80213 2.28571 9.32261 2.35414 9.81669 2.49101C10.3156 2.62281 10.836 2.81544 11.3781 3.0689L10.6585 4.90143C10.1741 4.69358 9.73993 4.53391 9.35617 4.42238C8.97244 4.30579 8.58147 4.2475 8.18335 4.2475C7.90512 4.2475 7.66768 4.29565 7.47101 4.39197C7.27433 4.48321 7.12563 4.61501 7.0249 4.78737C6.92416 4.95465 6.8738 5.14981 6.8738 5.37286C6.8738 5.63646 6.94575 5.85951 7.08966 6.042C7.23836 6.21942 7.45901 6.39178 7.75163 6.55904C8.04903 6.72634 8.41841 6.92153 8.85969 7.14457C9.39696 7.41322 9.85504 7.69456 10.234 7.98857C10.6178 8.27751 10.9128 8.6197 11.1191 9.01512C11.3253 9.40541 11.4284 9.89208 11.4284 10.475Z" fill="white"/>
</g>
<defs>
<clipPath id="clip0_4956_17148">
<rect width="6.85714" height="11.4286" fill="white" transform="translate(4.57129 2.28571)"/>
</clipPath>
</defs>
</svg>
