<svg width="100" height="70" viewBox="0 0 100 70" fill="none" xmlns="http://www.w3.org/2000/svg">
<g clip-path="url(#clip0_407_161)">
<path fill-rule="evenodd" clip-rule="evenodd" d="M41.3587 7.58697C44.5631 4.24893 49.0272 2.1761 53.962 2.1761C60.5218 2.1761 66.2468 5.8348 69.2946 11.2663C72.0216 10.0482 74.9753 9.42034 77.962 9.42393C89.7946 9.42393 99.3859 19.1 99.3859 31.0381C99.3859 42.9761 89.7946 52.6522 77.962 52.6522C76.5153 52.6522 75.1044 52.5076 73.7403 52.2326C71.0566 57.0185 65.9392 60.2533 60.0685 60.2533C57.6109 60.2533 55.2859 59.6881 53.2174 58.6761C50.4957 65.0783 44.1555 69.5652 36.7674 69.5652C29.074 69.5652 22.5153 64.6957 19.999 57.8685C18.8778 58.1051 17.735 58.2242 16.5892 58.2239C7.42722 58.225 4.60769e-05 50.7207 4.60769e-05 41.4631C-0.00682735 38.5292 0.75541 35.6448 2.21077 33.0974C3.66613 30.55 5.76378 28.4286 8.29461 26.9446C7.24466 24.5253 6.70444 21.9156 6.70765 19.2783C6.70765 8.63045 15.35 1.31188e-05 26.0109 1.31188e-05C28.9808 -0.00345186 31.9113 0.679514 34.5736 1.9956C37.2359 3.31168 39.5581 5.22526 41.3587 7.58697Z" fill="#00A1E0"/>
<path fill-rule="evenodd" clip-rule="evenodd" d="M14.3956 36.0761L14.7978 34.9598C14.8619 34.7685 15.0065 34.8316 15.0652 34.8674C15.1772 34.9337 15.2576 34.9935 15.4022 35.0783C16.5869 35.8272 17.6848 35.8348 18.0272 35.8348C18.9141 35.8348 19.4641 35.3653 19.4641 34.7316V34.699C19.4641 34.0098 18.6163 33.749 17.6369 33.449L17.4195 33.3794C16.075 32.9968 14.6369 32.4435 14.6369 30.7414V30.7066C14.6369 29.0914 15.9402 27.9642 17.8054 27.9642L18.0098 27.962C19.1054 27.962 20.1641 28.2805 20.9315 28.7457C21.0011 28.7892 21.0685 28.8696 21.0293 28.9761L20.6163 30.0924C20.5435 30.2827 20.3445 30.1566 20.3445 30.1566C19.5439 29.7394 18.658 29.5121 17.7554 29.4924C16.9641 29.4924 16.4554 29.912 16.4554 30.4816V30.5174C16.4554 31.1816 17.3272 31.4653 18.338 31.7946L18.5119 31.849C19.8522 32.2729 21.2826 32.8598 21.2826 34.474V34.5077C21.2826 36.2522 20.0152 37.3359 17.9772 37.3359C16.9761 37.3359 16.0185 37.1816 15.0054 36.6435C14.8141 36.5327 14.625 36.437 14.438 36.3011C14.4185 36.2729 14.3326 36.2392 14.3945 36.0761H14.3956ZM44.2402 36.0761L44.6435 34.9598C44.7022 34.7772 44.8728 34.8446 44.9098 34.8674C45.0206 34.9359 45.1032 34.9935 45.2467 35.0783C46.4337 35.8272 47.5293 35.8348 47.875 35.8348C48.7587 35.8348 49.3098 35.3653 49.3098 34.7316V34.699C49.3098 34.0098 48.463 33.749 47.4837 33.449L47.2663 33.3794C45.9195 32.9968 44.4815 32.4435 44.4815 30.7414V30.7066C44.4815 29.0914 45.7859 27.9642 47.6511 27.9642L47.8543 27.962C48.95 27.962 50.0098 28.2805 50.7782 28.7457C50.8456 28.7892 50.9141 28.8696 50.8761 28.9761C50.838 29.0751 50.4989 29.9881 50.463 30.0924C50.388 30.2827 50.1913 30.1566 50.1913 30.1566C49.3903 29.7392 48.504 29.512 47.6011 29.4924C46.8098 29.4924 46.3011 29.912 46.3011 30.4816V30.5174C46.3011 31.1816 47.1717 31.4653 48.1837 31.7946L48.3576 31.849C49.6978 32.2729 51.1272 32.8598 51.1272 34.474V34.5077C51.1272 36.2522 49.8609 37.3359 47.8228 37.3359C46.8206 37.3359 45.863 37.1816 44.8511 36.6435C44.6598 36.5327 44.4706 36.437 44.2826 36.3011C44.263 36.2729 44.1772 36.2392 44.2402 36.0761ZM66.3163 30.8272C66.4837 31.3881 66.5663 32.0044 66.5663 32.6555C66.5663 33.3077 66.4837 33.9218 66.3163 34.4827C66.1632 35.0235 65.9005 35.527 65.5445 35.962C65.1879 36.3845 64.7406 36.7211 64.2359 36.9468C63.7141 37.1859 63.1011 37.3055 62.4119 37.3055C61.7228 37.3055 61.1076 37.1859 60.588 36.9468C60.0833 36.7211 59.636 36.3845 59.2793 35.962C58.9237 35.5271 58.6607 35.024 58.5065 34.4837C58.3356 33.8895 58.2514 33.2738 58.2565 32.6555C58.2565 32.0033 58.3402 31.3881 58.5065 30.8272C58.6739 30.262 58.9337 29.7642 59.2782 29.349C59.6358 28.9248 60.0832 28.5854 60.588 28.3555C61.1087 28.112 61.7206 27.9892 62.4119 27.9892C63.1032 27.9892 63.7152 28.112 64.2359 28.3555C64.7554 28.5979 65.1967 28.9316 65.5445 29.349C65.8902 29.7642 66.1511 30.262 66.3163 30.8272ZM64.6163 32.6555C64.6163 31.6696 64.4337 30.8946 64.0706 30.3511C63.7119 29.812 63.1685 29.5511 62.4119 29.5511C61.6554 29.5511 61.1163 29.812 60.7619 30.3511C60.4065 30.8946 60.225 31.6696 60.225 32.6555C60.225 33.6403 60.4065 34.4207 60.7641 34.9685C61.1163 35.5142 61.6554 35.7783 62.4119 35.7783C63.1685 35.7783 63.7119 35.5131 64.0706 34.9685C64.4315 34.4207 64.6163 33.6403 64.6163 32.6555ZM80.2924 35.5142L80.7098 36.6685C80.7641 36.8098 80.6413 36.8718 80.6413 36.8718C79.9967 37.1218 79.1022 37.3001 78.2315 37.3001C76.7554 37.3001 75.625 36.8751 74.8706 36.0359C74.1206 35.199 73.738 34.0609 73.738 32.649C73.738 31.9957 73.8326 31.3772 74.0174 30.8174C74.2022 30.2522 74.4793 29.7544 74.8446 29.3392C75.2238 28.9123 75.6915 28.5733 76.2152 28.3457C76.7587 28.1033 77.3978 27.9816 78.1109 27.9816C78.5924 27.9816 79.0206 28.0109 79.388 28.0653C79.7804 28.1261 80.3032 28.2674 80.5239 28.3533C80.5641 28.3685 80.6761 28.4229 80.6304 28.5544C80.4696 29.0077 80.3598 29.3033 80.2109 29.7164C80.1456 29.8924 80.013 29.8337 80.013 29.8337C79.4532 29.6577 78.9163 29.5772 78.2152 29.5772C77.3728 29.5772 76.7402 29.8577 76.3272 30.4066C75.9098 30.9598 75.6761 31.6848 75.6728 32.649C75.6696 33.7066 75.9348 34.4903 76.4043 34.9751C76.8728 35.4587 77.5272 35.7033 78.3511 35.7033C78.6848 35.7033 79 35.6816 79.2837 35.637C79.5641 35.5924 79.8272 35.5055 80.075 35.4087C80.075 35.4087 80.2348 35.349 80.2924 35.5142ZM88.9989 30.5066C89.3695 31.8044 89.1761 32.9251 89.1695 32.987C89.1554 33.1348 89.0033 33.137 89.0033 33.137L83.2435 33.1327C83.2793 34.0077 83.4891 34.6272 83.913 35.0479C84.3293 35.4598 84.9902 35.724 85.8848 35.7251C87.2522 35.7283 87.8359 35.4533 88.25 35.3001C88.25 35.3001 88.4076 35.2435 88.4674 35.4001L88.8424 36.4555C88.9185 36.6327 88.8576 36.6946 88.7935 36.7305C88.4326 36.9294 87.5576 37.3011 85.8924 37.3055C85.0848 37.3087 84.3815 37.1935 83.8022 36.9685C83.2516 36.7646 82.7557 36.4361 82.3532 36.0087C81.9685 35.5894 81.6829 35.0891 81.5174 34.5446C81.3391 33.9481 81.2515 33.3281 81.2576 32.7055C81.2576 32.0533 81.3413 31.4337 81.5098 30.8674C81.6782 30.2968 81.9402 29.7935 82.2891 29.3707C82.6507 28.9391 83.1042 28.5938 83.6163 28.3598C84.1445 28.1109 84.7989 27.9892 85.5185 27.9892C86.1348 27.9892 86.6978 28.1218 87.1663 28.324C87.5272 28.4783 87.8902 28.7577 88.2619 29.1577C88.4967 29.4098 88.8543 29.962 88.9989 30.5066ZM83.2706 31.7098H87.3793C87.3369 31.1816 87.2337 30.7077 86.9967 30.3511C86.6359 29.812 86.138 29.5153 85.3826 29.5153C84.6261 29.5153 84.0891 29.812 83.7337 30.3511C83.5011 30.7077 83.3522 31.162 83.2706 31.7098ZM42.863 30.5066C43.2326 31.8044 43.0424 32.9251 43.0359 32.987C43.0206 33.1348 42.8685 33.137 42.8685 33.137L37.1076 33.1327C37.1445 34.0077 37.3532 34.6272 37.7782 35.0479C38.1945 35.4598 38.8543 35.724 39.7489 35.7251C41.1163 35.7283 41.7022 35.4533 42.1152 35.3001C42.1152 35.3001 42.2728 35.2435 42.3315 35.4001L42.7076 36.4555C42.7837 36.6327 42.7228 36.6946 42.6598 36.7305C42.2967 36.9294 41.4206 37.3011 39.7576 37.3055C38.9489 37.3087 38.2456 37.1935 37.6674 36.9685C37.1167 36.7643 36.6205 36.4359 36.2174 36.0087C35.8337 35.589 35.5489 35.0888 35.3837 34.5446C35.2041 33.9483 35.1158 33.3282 35.1217 32.7055C35.1217 32.0533 35.2065 31.4337 35.3739 30.8674C35.5305 30.321 35.796 29.8119 36.1543 29.3707C36.5159 28.9395 36.9688 28.5942 37.4804 28.3598C38.0109 28.1109 38.6652 27.9892 39.3826 27.9892C39.9496 27.9878 40.511 28.1017 41.0326 28.324C41.3935 28.4783 41.7565 28.7577 42.1272 29.1577C42.3619 29.4098 42.7195 29.962 42.863 30.5066ZM37.1337 31.7098H41.2445C41.2011 31.1816 41.0978 30.7077 40.8619 30.3511C40.5032 29.812 40.0032 29.5153 39.2478 29.5153C38.4913 29.5153 37.9532 29.812 37.6 30.3511C37.3652 30.7077 37.2174 31.162 37.1337 31.7098ZM26.975 31.4348C26.975 31.4348 27.4293 31.4751 27.925 31.5468V31.3033C27.925 30.5348 27.7652 30.1729 27.4511 29.9305C27.1293 29.6848 26.6489 29.5577 26.0272 29.5577C26.0272 29.5577 24.625 29.5403 23.5163 30.1424C23.4652 30.1729 23.4228 30.1903 23.4228 30.1903C23.4228 30.1903 23.2837 30.2392 23.2337 30.0968L22.8261 29.0011C22.763 28.8435 22.8772 28.7718 22.8772 28.7718C23.3956 28.3674 24.6522 28.1229 24.6522 28.1229C25.1623 28.0333 25.6788 27.9856 26.1967 27.9805C27.3467 27.9805 28.2369 28.2479 28.8424 28.7772C29.4489 29.3087 29.7576 30.1653 29.7576 31.3196L29.7609 36.5892C29.7609 36.5892 29.7728 36.7414 29.6282 36.7761C29.6282 36.7761 29.4163 36.8348 29.2261 36.8794C29.0337 36.924 28.3402 37.0653 27.7739 37.1609C27.1956 37.2578 26.6103 37.3065 26.0239 37.3066C25.4641 37.3066 24.9511 37.2544 24.4989 37.1511C24.0775 37.0629 23.6785 36.8898 23.3261 36.6424C23.0049 36.4092 22.7471 36.0995 22.5761 35.7414C22.3989 35.3794 22.3098 34.937 22.3098 34.4261C22.3098 33.9251 22.4152 33.4783 22.6185 33.0979C22.8228 32.7196 23.1032 32.399 23.4554 32.1479C23.8192 31.8917 24.226 31.7029 24.6565 31.5903C25.1054 31.4707 25.5826 31.4087 26.0761 31.4087C26.438 31.4087 26.7402 31.4164 26.975 31.4348ZM24.6826 35.4827C24.6793 35.4816 25.1989 35.8903 26.3717 35.8185C27.1956 35.7685 27.9261 35.612 27.9261 35.612V32.9924C27.9261 32.9924 27.1891 32.8718 26.3619 32.8598C25.1891 32.8457 24.6891 33.2772 24.6924 33.2761C24.3467 33.5218 24.1782 33.8859 24.1782 34.3903C24.1782 34.7131 24.2359 34.9653 24.3522 35.1414C24.425 35.2577 24.4565 35.3011 24.6826 35.4827ZM73.438 28.4664C73.3837 28.624 73.1043 29.4131 73.0032 29.6751C72.9663 29.7751 72.9054 29.8435 72.7935 29.8316C72.7935 29.8316 72.463 29.7555 72.1609 29.7555C71.9532 29.7555 71.6565 29.7816 71.3891 29.8642C71.1209 29.9466 70.8769 30.0932 70.6782 30.2914C70.4674 30.4946 70.2967 30.7805 70.1728 31.1392C70.0467 31.5001 69.9815 32.074 69.9815 32.6501V36.9414C69.9817 36.9643 69.9773 36.987 69.9686 37.0082C69.9599 37.0295 69.9471 37.0488 69.931 37.065C69.9148 37.0813 69.8956 37.0942 69.8744 37.103C69.8532 37.1118 69.8305 37.1164 69.8076 37.1164H68.2956C68.2725 37.1166 68.2496 37.1124 68.2281 37.1038C68.2066 37.0952 68.187 37.0825 68.1705 37.0663C68.1539 37.0502 68.1407 37.0309 68.1316 37.0097C68.1225 36.9884 68.1177 36.9656 68.1174 36.9424V28.3501C68.1174 28.2533 68.188 28.1761 68.2848 28.1761H69.7598C69.8576 28.1761 69.9272 28.2533 69.9272 28.3501V29.0522C70.1478 28.7566 70.5435 28.4957 70.9011 28.3348C71.2598 28.1718 71.6609 28.0522 72.3859 28.0957C72.763 28.1185 73.2532 28.2218 73.3522 28.2598C73.3715 28.2676 73.3891 28.2791 73.4039 28.2937C73.4187 28.3084 73.4305 28.3258 73.4385 28.345C73.4465 28.3643 73.4506 28.3849 73.4505 28.4058C73.4504 28.4266 73.4462 28.4472 73.438 28.4664ZM59.2315 24.4848C59.2717 24.5011 59.3815 24.5544 59.338 24.6848L58.8956 25.8946C58.8587 25.9859 58.8348 26.0403 58.6467 25.9837C58.398 25.9055 58.139 25.8652 57.8782 25.8642C57.65 25.8642 57.4435 25.8935 57.2609 25.9544C57.0781 26.0129 56.9125 26.1151 56.7782 26.2522C56.5996 26.4249 56.4615 26.635 56.3739 26.8674C56.1619 27.4761 56.0804 28.1251 56.0695 28.1664H57.9109C58.0663 28.1664 58.1152 28.2381 58.1 28.3522L57.8848 29.5501C57.85 29.724 57.6924 29.7174 57.6924 29.7174H55.7945L54.4978 37.0609C54.3863 37.7195 54.2168 38.367 53.9913 38.9957C53.788 39.5272 53.5782 39.9153 53.2413 40.2859C52.9537 40.6176 52.588 40.8724 52.1772 41.0272C51.7782 41.174 51.2935 41.249 50.7641 41.249C50.5119 41.249 50.2402 41.2435 49.9195 41.1674C49.7409 41.1266 49.5648 41.0751 49.3924 41.0131C49.3217 40.9881 49.2641 40.8979 49.3054 40.7827C49.3445 40.6685 49.6859 39.7348 49.7315 39.612C49.7902 39.4642 49.9402 39.5207 49.9402 39.5207C50.0424 39.5642 50.1141 39.5924 50.25 39.6196C50.388 39.6468 50.5728 39.6707 50.713 39.6707C50.9641 39.6707 51.1924 39.6403 51.3913 39.5729C51.6304 39.4957 51.7717 39.3555 51.9174 39.1685C52.0695 38.9718 52.1935 38.7055 52.3206 38.3479C52.4478 37.9859 52.5641 37.5077 52.6641 36.9283L53.9554 29.7185H52.6837C52.5315 29.7185 52.4793 29.6468 52.4967 29.5316L52.7098 28.3337C52.7435 28.1598 52.9054 28.1664 52.9054 28.1664H54.2109L54.2815 27.7772C54.4772 26.6207 54.8652 25.7414 55.4391 25.1642C56.0163 24.5827 56.8369 24.2892 57.8782 24.2892C58.1761 24.2892 58.4391 24.3087 58.6619 24.349C58.8804 24.3903 59.0467 24.4283 59.2315 24.4848ZM33.4967 36.9414C33.4967 37.0392 33.4293 37.1164 33.3315 37.1164H31.8043C31.7065 37.1164 31.6402 37.0381 31.6402 36.9424V24.6457C31.6402 24.5511 31.7076 24.4729 31.8032 24.4729H33.3315C33.4293 24.4729 33.4967 24.5511 33.4967 24.6468V36.9414Z" fill="white"/>
</g>
<defs>
<clipPath id="clip0_407_161">
<rect width="100" height="69.5652" fill="white"/>
</clipPath>
</defs>
</svg>
