<svg width="46" height="48" viewBox="0 0 46 48" fill="none" xmlns="http://www.w3.org/2000/svg">
<g clip-path="url(#clip0_4801_15148)">
<path d="M2.88215 2.0665L29.3893 0.108884C32.6452 -0.170519 33.4818 0.0178987 35.529 1.50608L43.9904 7.46703C45.3862 8.49205 45.8507 8.77163 45.8507 9.88781V42.5792C45.8507 44.628 45.1066 45.8398 42.5022 46.0252L11.7206 47.8886C9.76603 47.9812 8.83522 47.7018 7.81164 46.3972L1.58078 38.295C0.463164 36.8036 0 35.6873 0 34.3827V5.32405C0 3.64906 0.744179 2.25187 2.88215 2.0665Z" fill="white"/>
<path d="M29.3893 0.108884L2.88215 2.0665C0.744179 2.25187 0 3.64906 0 5.32405V34.3829C0 35.6874 0.462985 36.8036 1.58078 38.295L7.81164 46.3972C8.83522 47.7018 9.76603 47.9812 11.7206 47.8886L42.5022 46.0252C45.105 45.8398 45.8507 44.628 45.8507 42.5792V9.88781C45.8507 8.82912 45.4324 8.52411 44.2012 7.62035L43.989 7.46703L35.529 1.50608C33.4818 0.0178987 32.6454 -0.170519 29.3893 0.108884ZM12.4168 9.35282C9.9034 9.52208 9.33331 9.56041 7.90585 8.39945L4.2763 5.51247C3.90734 5.13885 4.09254 4.67247 5.02191 4.57987L30.5038 2.71808C32.6436 2.53127 33.7581 3.27688 34.5949 3.92847L38.9653 7.09503C39.1521 7.18906 39.6168 7.74644 39.0578 7.74644L12.7426 9.33044L12.4168 9.35282ZM9.48663 42.2998V14.5472C9.48663 13.3352 9.85863 12.7764 10.9732 12.6822L41.1976 10.9128C42.2228 10.8202 42.686 11.4716 42.686 12.6822V40.2494C42.686 41.4614 42.499 42.4864 40.8256 42.5792L11.9026 44.2558C10.2292 44.3484 9.48663 43.7912 9.48663 42.2998ZM38.0377 16.0352C38.2229 16.8736 38.0377 17.712 37.1993 17.8078L35.8053 18.084V38.5743C34.5949 39.2257 33.4804 39.5978 32.5492 39.5978C31.0612 39.5978 30.689 39.1314 29.5744 37.7359L20.4584 23.3934V37.2697L23.342 37.9227C23.342 37.9227 23.342 39.5994 21.0156 39.5994L14.6011 39.9714C14.4143 39.5978 14.6011 38.6669 15.2513 38.4817L16.9261 38.0169V19.6698L14.6013 19.4814C14.4143 18.6432 14.8789 17.4326 16.1821 17.3384L23.0644 16.8754L32.5494 31.4031V18.5506L30.1318 18.2726C29.945 17.2458 30.689 16.5002 31.6184 16.4092L38.0375 16.0354L38.0377 16.0352Z" fill="black"/>
</g>
<defs>
<clipPath id="clip0_4801_15148">
<rect width="45.8507" height="48" fill="white"/>
</clipPath>
</defs>
</svg>
