<svg width="47" height="12" viewBox="0 0 47 12" fill="none" xmlns="http://www.w3.org/2000/svg">
<g clip-path="url(#clip0_5012_23156)">
<path d="M14.7969 3.22958C13.8331 3.22958 13.1937 3.63125 12.8494 4.38136L12.8249 3.34534H11.3325V11.6461H12.979V8.51956C13.3418 9.12844 13.944 9.46412 14.7969 9.46412C16.4247 9.46412 17.469 8.22672 17.469 6.3376C17.469 4.4612 16.4247 3.22958 14.7969 3.22958ZM14.4095 8.01952C13.518 8.01952 12.923 7.32496 12.923 6.3376C12.923 5.3502 13.5134 4.69272 14.4095 4.69272C15.3057 4.69272 15.8098 5.32588 15.8098 6.3376C15.8098 7.34928 15.2998 8.01952 14.4095 8.01952Z" fill="black"/>
<path d="M21.087 3.22958C19.1267 3.22958 17.9844 4.5214 17.9844 6.34336C17.9844 8.16536 19.1325 9.46412 21.087 9.46412C23.0415 9.46412 24.1839 8.16652 24.1839 6.34336C24.1839 4.52024 23.0473 3.22958 21.087 3.22958ZM21.087 8.01372C20.1897 8.01372 19.6133 7.3678 19.6133 6.34336C19.6133 5.31896 20.1967 4.68576 21.087 4.68576C21.9773 4.68576 22.5491 5.32012 22.5491 6.34336C22.5491 7.36664 21.9843 8.01372 21.087 8.01372Z" fill="black"/>
<path d="M26.3427 0.956116H24.6963V9.46408H26.3427V0.956116Z" fill="black"/>
<path d="M28.5273 0.956116H26.8809V9.46408H28.5273V0.956116Z" fill="black"/>
<path d="M32.1515 3.22958C30.1911 3.22958 29.0488 4.5214 29.0488 6.34336C29.0488 8.16536 30.197 9.46412 32.1515 9.46412C34.1059 9.46412 35.2471 8.16652 35.2471 6.34336C35.2471 4.52024 34.1106 3.22958 32.1515 3.22958ZM32.1515 8.01372C31.2542 8.01372 30.6766 7.3678 30.6766 6.34336C30.6766 5.31896 31.26 4.68576 32.1515 4.68576C33.0429 4.68576 33.6135 5.32012 33.6135 6.34336C33.6135 7.36664 33.0488 8.01372 32.1515 8.01372Z" fill="black"/>
<path d="M36.6042 7.68488C36.1211 7.68488 35.7046 8.08192 35.7046 8.57156C35.7046 9.0612 36.12 9.46288 36.6042 9.46288C37.0885 9.46288 37.5039 9.0612 37.5039 8.57156C37.5039 8.08192 37.0885 7.68488 36.6042 7.68488Z" fill="black"/>
<path d="M38.9686 0.901917C38.4284 0.901917 37.9604 1.33484 37.9604 1.87078C37.9604 2.40672 38.4144 2.84544 38.9686 2.84544C39.5229 2.84544 39.9884 2.40672 39.9884 1.87078C39.9884 1.33484 39.5088 0.901917 38.9686 0.901917Z" fill="black"/>
<path d="M39.7978 3.46106H38.1514V9.46407H39.7978V3.46106Z" fill="black"/>
<path d="M43.489 3.22958C41.5286 3.22958 40.3862 4.5214 40.3862 6.34336C40.3862 8.16536 41.5342 9.46412 43.489 9.46412C45.4434 9.46412 46.5846 8.16652 46.5846 6.34336C46.5846 4.52024 45.4478 3.22958 43.489 3.22958ZM43.489 8.01372C42.5926 8.01372 42.0138 7.3678 42.0138 6.34336C42.0138 5.31896 42.5974 4.68576 43.489 4.68576C44.3802 4.68576 44.951 5.32012 44.951 6.34336C44.951 7.36664 44.3862 8.01372 43.489 8.01372Z" fill="black"/>
<path d="M9.22049 1.42719H7.60205L8.44221 2.85328L9.22049 1.42719Z" fill="black"/>
<path d="M5.72576 0L0 9.4606H3.06649C3.47605 9.4606 3.87862 9.3576 4.23336 9.16428C4.61724 8.95476 4.9078 8.65032 5.13416 8.28108C5.39904 7.84932 5.65692 7.41292 5.91712 6.97884L6.58456 5.8676L5.7234 4.43688L5.34184 5.04572C4.9066 5.76688 4.49472 6.5054 4.04432 7.21728C3.81794 7.5738 3.52156 7.91184 3.08516 7.99864C3.01981 8.01136 2.95214 8.01832 2.88446 8.02064C2.79461 8.02412 2.70476 8.0218 2.61492 8.0218L5.72576 2.77116L9.71756 9.48144H10.8727V8.49524L10.8459 8.45124L5.72576 0Z" fill="black"/>
</g>
<defs>
<clipPath id="clip0_5012_23156">
<rect width="46.8" height="12" fill="white"/>
</clipPath>
</defs>
</svg>
