<svg width="51" height="68" viewBox="0 0 51 68" fill="none" xmlns="http://www.w3.org/2000/svg">
<mask id="mask0_4417_1744" style="mask-type:luminance" maskUnits="userSpaceOnUse" x="0" y="0" width="51" height="68">
<path d="M31.7786 0.0012207H5.5068C2.95689 0.0012207 0.870605 2.08751 0.870605 4.63741V63.3625C0.870605 65.9124 2.95689 67.9987 5.5068 67.9987H45.6871C48.2371 67.9987 50.3233 65.9124 50.3233 63.3625V18.546L31.7786 0.0012207Z" fill="white"/>
</mask>
<g mask="url(#mask0_4417_1744)">
<path d="M31.7786 0.0012207H5.5068C2.95689 0.0012207 0.870605 2.08751 0.870605 4.63741V63.3625C0.870605 65.9124 2.95689 67.9987 5.5068 67.9987H45.6871C48.2371 67.9987 50.3233 65.9124 50.3233 63.3625V18.546L39.5056 10.819L31.7786 0.0012207Z" fill="#0F9D58"/>
</g>
<mask id="mask1_4417_1744" style="mask-type:luminance" maskUnits="userSpaceOnUse" x="0" y="0" width="51" height="68">
<path d="M31.7786 0.0012207H5.5068C2.95689 0.0012207 0.870605 2.08751 0.870605 4.63741V63.3625C0.870605 65.9124 2.95689 67.9987 5.5068 67.9987H45.6871C48.2371 67.9987 50.3233 65.9124 50.3233 63.3625V18.546L31.7786 0.0012207Z" fill="white"/>
</mask>
<g mask="url(#mask1_4417_1744)">
<path d="M13.2338 33.2273V55.6356H37.9601V33.2273H13.2338ZM24.0516 52.5448H16.3246V48.6813H24.0516V52.5448ZM24.0516 46.3632H16.3246V42.4997H24.0516V46.3632ZM24.0516 40.1816H16.3246V36.3181H24.0516V40.1816ZM34.8693 52.5448H27.1423V48.6813H34.8693V52.5448ZM34.8693 46.3632H27.1423V42.4997H34.8693V46.3632ZM34.8693 40.1816H27.1423V36.3181H34.8693V40.1816Z" fill="#F1F1F1"/>
</g>
<mask id="mask2_4417_1744" style="mask-type:luminance" maskUnits="userSpaceOnUse" x="0" y="0" width="51" height="68">
<path d="M31.7786 0.0012207H5.5068C2.95689 0.0012207 0.870605 2.08751 0.870605 4.63741V63.3625C0.870605 65.9124 2.95689 67.9987 5.5068 67.9987H45.6871C48.2371 67.9987 50.3233 65.9124 50.3233 63.3625V18.546L31.7786 0.0012207Z" fill="white"/>
</mask>
<g mask="url(#mask2_4417_1744)">
<path d="M33.1346 17.1899L50.3233 34.3748V18.546L33.1346 17.1899Z" fill="url(#paint0_linear_4417_1744)"/>
</g>
<mask id="mask3_4417_1744" style="mask-type:luminance" maskUnits="userSpaceOnUse" x="0" y="0" width="51" height="68">
<path d="M31.7786 0.0012207H5.5068C2.95689 0.0012207 0.870605 2.08751 0.870605 4.63741V63.3625C0.870605 65.9124 2.95689 67.9987 5.5068 67.9987H45.6871C48.2371 67.9987 50.3233 65.9124 50.3233 63.3625V18.546L31.7786 0.0012207Z" fill="white"/>
</mask>
<g mask="url(#mask3_4417_1744)">
<path d="M31.7786 0.0012207V13.9098C31.7786 16.4713 33.8533 18.546 36.4148 18.546H50.3233L31.7786 0.0012207Z" fill="#87CEAC"/>
</g>
<mask id="mask4_4417_1744" style="mask-type:luminance" maskUnits="userSpaceOnUse" x="0" y="0" width="51" height="68">
<path d="M31.7786 0.0012207H5.5068C2.95689 0.0012207 0.870605 2.08751 0.870605 4.63741V63.3625C0.870605 65.9124 2.95689 67.9987 5.5068 67.9987H45.6871C48.2371 67.9987 50.3233 65.9124 50.3233 63.3625V18.546L31.7786 0.0012207Z" fill="white"/>
</mask>
<g mask="url(#mask4_4417_1744)">
<path d="M5.5068 0.0012207C2.95689 0.0012207 0.870605 2.08751 0.870605 4.63741V5.02376C0.870605 2.47386 2.95689 0.38757 5.5068 0.38757H31.7786V0.0012207H5.5068Z" fill="white" fill-opacity="0.2"/>
</g>
<mask id="mask5_4417_1744" style="mask-type:luminance" maskUnits="userSpaceOnUse" x="0" y="0" width="51" height="68">
<path d="M31.7786 0.0012207H5.5068C2.95689 0.0012207 0.870605 2.08751 0.870605 4.63741V63.3625C0.870605 65.9124 2.95689 67.9987 5.5068 67.9987H45.6871C48.2371 67.9987 50.3233 65.9124 50.3233 63.3625V18.546L31.7786 0.0012207Z" fill="white"/>
</mask>
<g mask="url(#mask5_4417_1744)">
<path d="M45.6871 67.6123H5.5068C2.95689 67.6123 0.870605 65.526 0.870605 62.9761V63.3624C0.870605 65.9123 2.95689 67.9986 5.5068 67.9986H45.6871C48.2371 67.9986 50.3233 65.9123 50.3233 63.3624V62.9761C50.3233 65.526 48.2371 67.6123 45.6871 67.6123Z" fill="#263238" fill-opacity="0.2"/>
</g>
<mask id="mask6_4417_1744" style="mask-type:luminance" maskUnits="userSpaceOnUse" x="0" y="0" width="51" height="68">
<path d="M31.7786 0.0012207H5.5068C2.95689 0.0012207 0.870605 2.08751 0.870605 4.63741V63.3625C0.870605 65.9124 2.95689 67.9987 5.5068 67.9987H45.6871C48.2371 67.9987 50.3233 65.9124 50.3233 63.3625V18.546L31.7786 0.0012207Z" fill="white"/>
</mask>
<g mask="url(#mask6_4417_1744)">
<path d="M36.4148 18.5461C33.8533 18.5461 31.7786 16.4714 31.7786 13.9099V14.2963C31.7786 16.8578 33.8533 18.9325 36.4148 18.9325H50.3233V18.5461H36.4148Z" fill="#263238" fill-opacity="0.1"/>
</g>
<path d="M31.7786 0.0012207H5.5068C2.95689 0.0012207 0.870605 2.08751 0.870605 4.63741V63.3625C0.870605 65.9124 2.95689 67.9987 5.5068 67.9987H45.6871C48.2371 67.9987 50.3233 65.9124 50.3233 63.3625V18.546L31.7786 0.0012207Z" fill="url(#paint1_radial_4417_1744)"/>
<defs>
<linearGradient id="paint0_linear_4417_1744" x1="892.662" y1="164.741" x2="892.662" y2="1735.91" gradientUnits="userSpaceOnUse">
<stop stop-color="#263238" stop-opacity="0.2"/>
<stop offset="1" stop-color="#263238" stop-opacity="0.02"/>
</linearGradient>
<radialGradient id="paint1_radial_4417_1744" cx="0" cy="0" r="1" gradientUnits="userSpaceOnUse" gradientTransform="translate(157.539 134.394) scale(7974.18 7974.18)">
<stop stop-color="white" stop-opacity="0.1"/>
<stop offset="1" stop-color="white" stop-opacity="0"/>
</radialGradient>
</defs>
</svg>
