<svg width="55" height="10" viewBox="0 0 55 10" fill="none" xmlns="http://www.w3.org/2000/svg">
<g clip-path="url(#clip0_5012_23198)">
<path d="M20.1101 9.54501C20.0768 9.57982 20.0367 9.60745 19.9924 9.62619C19.948 9.64494 19.9003 9.65441 19.8521 9.65401H18.8186C18.7703 9.65454 18.7225 9.64513 18.678 9.62638C18.6335 9.60763 18.5934 9.57993 18.5601 9.54501C18.5253 9.51173 18.4977 9.47166 18.4791 9.42728C18.4604 9.3829 18.451 9.33515 18.4516 9.28701V5.83301C18.4516 5.27151 18.3201 4.83151 18.0571 4.51451C17.7941 4.19701 17.4091 4.03851 16.9016 4.03851C16.4301 4.03851 16.0536 4.20151 15.7726 4.52801C15.4916 4.85401 15.3511 5.28951 15.3511 5.83301V9.28701C15.3511 9.38701 15.3151 9.47251 15.2426 9.54501C15.2092 9.57988 15.1691 9.60755 15.1246 9.6263C15.0802 9.64504 15.0323 9.65448 14.9841 9.65401H13.9506C13.9024 9.65447 13.8547 9.64503 13.8103 9.62628C13.7659 9.60753 13.7258 9.57987 13.6926 9.54501C13.6577 9.51176 13.6301 9.4717 13.6113 9.42732C13.5926 9.38294 13.5831 9.33519 13.5836 9.28701V0.367014C13.5836 0.267514 13.6196 0.181514 13.6926 0.109014C13.7258 0.0742657 13.7658 0.0466737 13.8101 0.0279302C13.8544 0.00918679 13.902 -0.000312961 13.9501 1.36905e-05H14.9836C15.0836 1.36905e-05 15.1696 0.0365137 15.2421 0.109014C15.2768 0.142367 15.3043 0.182454 15.323 0.226818C15.3416 0.271182 15.351 0.318888 15.3506 0.367014V3.26351C15.8946 2.71951 16.5471 2.44751 17.3086 2.44751C18.3331 2.44751 19.0736 2.74251 19.5321 3.33151C19.9896 3.92051 20.2186 4.68651 20.2186 5.62901V9.28701C20.2186 9.38701 20.1826 9.47251 20.1101 9.54501ZM21.6601 2.69201C21.6935 2.65723 21.7337 2.62966 21.7781 2.611C21.8226 2.59234 21.8704 2.58299 21.9186 2.58351H22.9516C23.0516 2.58351 23.1376 2.62001 23.2101 2.69201C23.2449 2.7254 23.2725 2.76555 23.2913 2.81C23.31 2.85446 23.3195 2.90227 23.3191 2.95051V6.40451C23.3191 6.97551 23.4391 7.41701 23.6791 7.72951C23.9191 8.04251 24.2931 8.19951 24.8011 8.19951C25.2721 8.19951 25.6371 8.03801 25.8956 7.71651C26.1541 7.39451 26.2831 6.95751 26.2831 6.40451V2.95001C26.2831 2.85001 26.3191 2.76451 26.3921 2.69151C26.4254 2.65679 26.4655 2.62926 26.5099 2.6106C26.5542 2.59194 26.602 2.58255 26.6501 2.58301H27.6836C27.7836 2.58301 27.8691 2.61951 27.9421 2.69151C27.9768 2.72492 28.0044 2.76509 28.0231 2.80955C28.0417 2.854 28.0511 2.9018 28.0506 2.95001V9.28651C28.0506 9.38651 28.0146 9.47201 27.9421 9.54451C27.9088 9.57941 27.8686 9.60709 27.8242 9.62584C27.7797 9.64459 27.7318 9.65401 27.6836 9.65351H26.6501C26.6019 9.65397 26.5542 9.64453 26.5098 9.62578C26.4654 9.60703 26.4253 9.57937 26.3921 9.54451C26.3572 9.51126 26.3296 9.4712 26.3108 9.42682C26.2921 9.38244 26.2826 9.33469 26.2831 9.28651V8.97351C25.7571 9.51751 25.1271 9.78951 24.3931 9.78951C23.3686 9.78951 22.6391 9.49701 22.2041 8.91251C21.7691 8.32751 21.5511 7.55951 21.5511 6.60751V2.95051C21.5511 2.85051 21.5876 2.76501 21.6601 2.69201ZM36.0456 9.54501C36.0122 9.57988 35.9721 9.60755 35.9276 9.6263C35.8832 9.64504 35.8353 9.65448 35.7871 9.65401H34.7541C34.7058 9.65451 34.658 9.64509 34.6135 9.62634C34.5691 9.60759 34.5289 9.57991 34.4956 9.54501C34.4607 9.51176 34.4331 9.4717 34.4143 9.42732C34.3956 9.38294 34.3861 9.33519 34.3866 9.28701V5.83301C34.3866 5.27151 34.2551 4.83151 33.9926 4.51451C33.7296 4.19701 33.3441 4.03851 32.8371 4.03851C32.3651 4.03851 31.9891 4.20151 31.7081 4.52801C31.4271 4.85401 31.2866 5.28951 31.2866 5.83301V9.28701C31.2866 9.38701 31.2506 9.47251 31.1781 9.54501C31.1447 9.57988 31.1046 9.60755 31.0601 9.6263C31.0157 9.64504 30.9678 9.65448 30.9196 9.65401H29.8861C29.8378 9.65454 29.79 9.64513 29.7455 9.62638C29.701 9.60763 29.6609 9.57993 29.6276 9.54501C29.5928 9.51171 29.5653 9.47164 29.5466 9.42726C29.5279 9.38288 29.5186 9.33515 29.5191 9.28701V2.95001C29.5191 2.85001 29.5551 2.76451 29.6281 2.69151C29.6614 2.65679 29.7015 2.62926 29.7459 2.6106C29.7902 2.59194 29.838 2.58255 29.8861 2.58301H30.9196C31.0196 2.58301 31.1051 2.61951 31.1781 2.69151C31.2128 2.72494 31.2404 2.76511 31.259 2.80957C31.2777 2.85402 31.2871 2.90181 31.2866 2.95001V3.26301C31.8306 2.71901 32.4831 2.44701 33.2446 2.44701C34.2691 2.44701 35.0096 2.74201 35.4676 3.33101C35.9256 3.92001 36.1546 4.68601 36.1546 5.62851V9.28651C36.1546 9.38651 36.1181 9.47251 36.0456 9.54501ZM40.1046 7.78451C40.2626 7.94301 40.5371 8.02201 40.9271 8.02201H41.7566C41.8561 8.02201 41.9421 8.05851 42.0146 8.13101C42.0494 8.1644 42.077 8.20455 42.0958 8.249C42.1145 8.29346 42.124 8.34127 42.1236 8.38951V9.28701C42.1236 9.38701 42.0871 9.47251 42.0146 9.54501C41.9813 9.57982 41.9412 9.60745 41.8969 9.62619C41.8525 9.64494 41.8048 9.65441 41.7566 9.65401H40.7501C39.8891 9.65401 39.2316 9.44301 38.7786 9.02151C38.3251 8.60001 38.0986 7.97251 38.0986 7.13851V4.21501H37.2016C37.1534 4.2156 37.1055 4.20627 37.0611 4.18761C37.0166 4.16894 36.9764 4.14134 36.9431 4.10651C36.9082 4.0732 36.8805 4.03306 36.8617 3.98859C36.843 3.94412 36.8336 3.89627 36.8341 3.84801V2.95051C36.8341 2.85051 36.8701 2.76501 36.9431 2.69201C36.9765 2.65723 37.0166 2.62966 37.0611 2.611C37.1056 2.59234 37.1534 2.58299 37.2016 2.58351H38.0986V0.367014C38.0986 0.267514 38.1346 0.181514 38.2076 0.109014C38.2409 0.0741804 38.2809 0.0465369 38.3253 0.0277896C38.3697 0.00904231 38.4174 -0.000410846 38.4656 1.36905e-05H39.4991C39.5991 1.36905e-05 39.6851 0.0365137 39.7576 0.109014C39.7924 0.142324 39.82 0.182392 39.8387 0.226758C39.8575 0.271124 39.867 0.318852 39.8666 0.367014V2.58351H41.6201C41.7201 2.58351 41.8061 2.62001 41.8786 2.69201C41.9134 2.7254 41.941 2.76555 41.9598 2.81C41.9785 2.85446 41.988 2.90227 41.9876 2.95051V3.84801C41.9876 3.94801 41.9511 4.03401 41.8786 4.10651C41.8452 4.14129 41.805 4.16887 41.7606 4.18753C41.7161 4.20619 41.6683 4.21554 41.6201 4.21501H39.8666V7.09751C39.8666 7.39701 39.9461 7.62601 40.1046 7.78451ZM47.5351 5.33001C47.4351 4.49601 46.9321 4.07901 46.0256 4.07901C45.5546 4.07901 45.1851 4.20601 44.9176 4.46001C44.6501 4.71351 44.4981 5.00401 44.4621 5.33001H47.5351ZM47.7801 2.91651C48.2795 3.22075 48.6862 3.65578 48.9561 4.17451C49.2321 4.70001 49.3711 5.27551 49.3711 5.90101V6.51301C49.3711 6.61301 49.3341 6.69901 49.2616 6.77151C49.2283 6.80626 49.1882 6.83381 49.1438 6.85247C49.0994 6.87113 49.0517 6.8805 49.0036 6.88001H44.4621C44.4621 7.27001 44.6161 7.58001 44.9246 7.81151C45.2326 8.04251 45.5996 8.15851 46.0256 8.15851C46.5241 8.15851 46.9096 8.05401 47.1816 7.84551C47.2816 7.77301 47.3626 7.72301 47.4266 7.69551C47.4896 7.66901 47.5756 7.65551 47.6846 7.65551H48.7721C48.8721 7.65551 48.9581 7.68901 49.0306 7.75701C49.0647 7.78663 49.092 7.82319 49.1108 7.86424C49.1296 7.90528 49.1394 7.94987 49.1396 7.99501C49.1396 8.18551 49.0146 8.42601 48.7656 8.71601C48.5161 9.00601 48.1556 9.25751 47.6846 9.47051C47.2131 9.68301 46.6601 9.79001 46.0256 9.79001C45.3551 9.79001 44.7681 9.63601 44.2651 9.32751C43.7616 9.01951 43.3741 8.58901 43.1026 8.03601C42.8306 7.48301 42.6946 6.84401 42.6946 6.11851C42.6946 5.43851 42.8306 4.82001 43.1026 4.26251C43.361 3.7203 43.7659 3.26117 44.2716 2.93701C44.7791 2.61051 45.3641 2.44751 46.0256 2.44751C46.6876 2.44751 47.2726 2.60401 47.7801 2.91651ZM52.5726 4.57501C52.3326 4.81551 52.2121 5.20751 52.2121 5.75151V9.28651C52.2121 9.38651 52.1761 9.47251 52.1036 9.54501C52.0702 9.57988 52.0301 9.60755 51.9856 9.6263C51.9412 9.64504 51.8933 9.65448 51.8451 9.65401H50.8121C50.7638 9.65454 50.716 9.64513 50.6715 9.62638C50.627 9.60763 50.5869 9.57993 50.5536 9.54501C50.5187 9.51179 50.491 9.47174 50.4722 9.42736C50.4535 9.38297 50.4441 9.33519 50.4446 9.28701V2.95001C50.4446 2.85001 50.4806 2.76451 50.5536 2.69151C50.587 2.65676 50.6272 2.6292 50.6716 2.61054C50.7161 2.59188 50.7639 2.58252 50.8121 2.58301H51.8451C51.9446 2.58301 52.0311 2.61951 52.1036 2.69151C52.1384 2.72491 52.1659 2.76507 52.1846 2.80953C52.2033 2.85399 52.2126 2.9018 52.2121 2.95001V3.26301C52.4571 3.02751 52.7156 2.85501 52.9871 2.74601C53.2591 2.63751 53.6036 2.58301 54.0206 2.58301H54.6326C54.6808 2.5826 54.7286 2.59201 54.773 2.61067C54.8174 2.62932 54.8576 2.65683 54.8911 2.69151C54.9259 2.72491 54.9534 2.76507 54.9721 2.80953C54.9908 2.85399 55.0001 2.9018 54.9996 2.95001V3.84751C54.9996 3.94751 54.9636 4.03351 54.8911 4.10601C54.8577 4.14075 54.8175 4.16829 54.773 4.18694C54.7286 4.2056 54.6808 4.21498 54.6326 4.21451H53.7486C53.2046 4.21451 52.8126 4.33501 52.5726 4.57501ZM6.03359 4.21751C5.83109 4.27551 5.60859 4.27651 5.39959 4.26751C5.15709 4.25751 4.90009 4.22651 4.67609 4.12751C4.49209 4.04501 4.34409 3.89751 4.42109 3.68401C4.47609 3.53351 4.59709 3.39901 4.73659 3.32301C4.89409 3.23801 5.06659 3.25201 5.22359 3.32901C5.40059 3.41551 5.54709 3.55601 5.68009 3.69801C5.75009 3.77301 5.81659 3.85001 5.88259 3.92801C5.91259 3.96401 6.11809 4.16951 6.03359 4.21751ZM9.39609 4.29051C9.08509 4.21851 8.71759 4.24401 8.40559 4.19451C7.91409 4.11551 7.18259 3.54301 6.78559 2.96051C6.51059 2.55601 6.37859 2.14401 6.16809 1.64201C6.02059 1.29151 5.70009 0.182514 5.25159 0.702014C5.06659 0.915514 4.86009 1.61901 4.70909 1.60901C4.59759 1.63501 4.57909 1.41701 4.54409 1.32401C4.47909 1.15451 4.44559 0.959014 4.35909 0.799014C4.29059 0.672014 4.20009 0.519014 4.06159 0.457014C3.81509 0.330514 3.51809 0.712014 3.37059 1.16551C3.30759 1.40851 2.88359 1.87951 2.69859 1.99351C1.85859 2.51201 0.172093 3.05801 9.31807e-05 4.87701C-0.000406819 4.88451 9.31807e-05 4.90701 0.0285932 4.88701C0.230093 4.74101 2.51109 3.09801 1.04709 6.27401C0.150093 8.21951 4.48059 9.45851 4.70309 9.46401C4.73309 9.46401 4.73059 9.45051 4.73159 9.44151C5.07759 6.33651 8.49109 6.66301 9.28609 5.91951C10.0736 5.18251 10.0901 4.46951 9.39609 4.29051Z" fill="#FA5320"/>
</g>
<defs>
<clipPath id="clip0_5012_23198">
<rect width="55" height="10" fill="white"/>
</clipPath>
</defs>
</svg>
