<svg width="61" height="10" viewBox="0 0 61 10" fill="none" xmlns="http://www.w3.org/2000/svg">
<g clip-path="url(#clip0_5179_2439)">
<path d="M14.6961 7.14899C15.4761 7.14899 15.9457 6.86379 16.2961 6.47799V7.08999H17.0509V0.799988H16.3001V3.55939C15.9481 3.15679 15.4801 2.87999 14.7001 2.87999C13.5681 2.87999 12.7041 3.81099 12.7041 5.01859C12.7041 6.20959 13.5681 7.14859 14.7001 7.14859L14.6961 7.14899ZM14.8721 6.48639C14.0669 6.48639 13.4631 5.84039 13.4631 5.01839C13.4631 4.18799 14.0671 3.54239 14.8721 3.54239C15.6771 3.54239 16.2981 4.18839 16.2981 5.01839C16.2981 5.83839 15.6775 6.48639 14.8721 6.48639ZM18.0949 7.08999H18.8497V4.90119C18.8497 4.05419 19.3697 3.60119 19.9401 3.60119C20.1161 3.60119 20.2671 3.60959 20.4517 3.67659V2.87999C19.7217 2.86319 19.1853 3.04799 18.8517 3.50899V2.93859H18.0969V7.08999H18.0949ZM22.9901 7.19099C24.2061 7.19099 25.1875 6.21799 25.1875 5.01039C25.1875 3.79439 24.2061 2.82139 22.9901 2.82139C22.7023 2.8202 22.4171 2.876 22.151 2.98559C21.8849 3.09518 21.6431 3.25637 21.4396 3.45988C21.2361 3.66338 21.0749 3.90517 20.9653 4.17129C20.8557 4.43741 20.7999 4.72259 20.8011 5.01039C20.8011 6.21839 21.7739 7.19099 22.9901 7.19099ZM22.9901 6.48639C22.1933 6.48639 21.5811 5.84039 21.5811 5.01839C21.5811 4.18799 22.1931 3.54239 22.9901 3.54239C23.7871 3.54239 24.4075 4.18839 24.4075 5.01839C24.4075 5.83839 23.7867 6.48639 22.9901 6.48639ZM25.9905 9.18699H26.7453V6.47999C27.0973 6.86599 27.5653 7.15099 28.3453 7.15099C29.4773 7.15099 30.3413 6.21159 30.3413 5.02099C30.3413 3.81299 29.4773 2.88239 28.3453 2.88239C27.5653 2.88239 27.0953 3.15919 26.7453 3.56179V2.94119H25.9905V9.18959V9.18699ZM28.1711 6.48639C27.3659 6.48639 26.7451 5.84039 26.7451 5.01839C26.7451 4.18799 27.3657 3.54239 28.1711 3.54239C28.9765 3.54239 29.5801 4.18839 29.5801 5.01839C29.5801 5.83839 28.9761 6.48639 28.1711 6.48639ZM33.0465 7.19099C33.7761 7.19099 34.4305 6.83899 34.8265 6.28499L34.2225 5.84039C33.9793 6.23439 33.5431 6.48639 33.0485 6.48639C32.2349 6.47799 31.6145 5.84039 31.6145 5.01839C31.6145 4.18799 32.2351 3.54239 33.0485 3.54239C33.5349 3.55079 33.9625 3.80239 34.2145 4.18839L34.8265 3.73559C34.6243 3.45266 34.3575 3.2221 34.0483 3.06309C33.739 2.90408 33.3962 2.82122 33.0485 2.82139C31.8575 2.82139 30.8679 3.79439 30.8679 5.01039C30.8679 6.21839 31.8575 7.19099 33.0485 7.19099H33.0465ZM37.4625 7.19099C38.6785 7.19099 39.6599 6.21799 39.6599 5.01039C39.6599 3.79439 38.6787 2.82139 37.4625 2.82139C37.1747 2.8202 36.8895 2.876 36.6234 2.98559C36.3573 3.09518 36.1155 3.25637 35.912 3.45988C35.7085 3.66338 35.5473 3.90517 35.4377 4.17129C35.3281 4.43741 35.2723 4.72259 35.2735 5.01039C35.2735 6.21839 36.2465 7.19099 37.4625 7.19099ZM37.4625 6.48639C36.6657 6.48639 36.0535 5.84039 36.0535 5.01839C36.0535 4.18799 36.6655 3.54239 37.4625 3.54239C38.2595 3.54239 38.8799 4.18839 38.8799 5.01839C38.8799 5.83839 38.2593 6.48639 37.4625 6.48639ZM40.4625 7.08999H41.2173V5.04999C41.2173 4.07719 41.7293 3.54039 42.4503 3.54039C43.0793 3.54039 43.6163 3.96839 43.6163 5.00839V7.08839H44.3711V4.95159C44.3711 3.55959 43.6079 2.87999 42.5427 2.87999C42.2906 2.87942 42.0413 2.93391 41.8125 3.03965C41.5836 3.1454 41.3805 3.29984 41.2175 3.49219V2.93859H40.4627V7.08999H40.4625ZM47.1265 7.10699C47.3682 7.10652 47.6085 7.06977 47.8393 6.99799L47.7553 6.34399C47.6043 6.38399 47.4449 6.41939 47.2853 6.41939C46.8577 6.41939 46.5389 6.21819 46.5389 5.67939V3.59939H47.7215V2.93679H46.5389V1.72879H45.7925V2.93679H44.8201V3.59939H45.7929V5.83199C45.7929 6.64559 46.3465 7.10699 47.1265 7.10699ZM50.2585 7.14699C51.0385 7.14699 51.5081 6.86179 51.8585 6.47599V7.08799H52.6133V2.93859H51.8585V3.55919C51.5065 3.15659 51.0385 2.87979 50.2585 2.87979C49.1265 2.87979 48.2625 3.81079 48.2625 5.01839C48.2625 6.20939 49.1265 7.14839 50.2585 7.14839V7.14699ZM50.4345 6.48439C49.6295 6.48439 49.0085 5.83839 49.0085 5.01639C49.0085 4.18599 49.6293 3.54039 50.4345 3.54039C51.2397 3.54039 51.8605 4.18639 51.8605 5.01639C51.8605 5.83639 51.2399 6.48439 50.4345 6.48439ZM55.5451 7.18899C56.2747 7.18899 56.9291 6.83699 57.3251 6.28299L56.7211 5.83839C56.4779 6.23239 56.0419 6.48439 55.5471 6.48439C54.7335 6.47599 54.1131 5.83839 54.1131 5.01639C54.1131 4.18599 54.7337 3.54039 55.5471 3.54039C56.0335 3.54879 56.4611 3.80039 56.7131 4.18639L57.3251 3.73359C57.1229 3.45066 56.8561 3.2201 56.5468 3.06109C56.2376 2.90208 55.8948 2.81922 55.5471 2.81939C54.3561 2.81939 53.3663 3.79239 53.3663 5.00839C53.3683 5.58615 53.5986 6.13969 54.0072 6.54822C54.4158 6.95675 54.9693 7.18709 55.5471 7.18899H55.5451ZM59.9855 7.10499C60.2272 7.10452 60.4675 7.06777 60.6983 6.99599L60.6143 6.34199C60.4633 6.38199 60.3039 6.41739 60.1443 6.41739C59.7167 6.41739 59.3979 6.21619 59.3979 5.67739V3.59739H60.5805V2.93479H59.3979V1.72679H58.6515V2.93479H57.6785V3.59739H58.6515V5.83199C58.6515 6.64559 59.2051 7.10679 59.9851 7.10679L59.9855 7.10499Z" fill="white"/>
<path fill-rule="evenodd" clip-rule="evenodd" d="M5.914 3.244C5.62072 3.1035 5.2996 3.03077 4.9744 3.0312C3.7724 3.0312 2.7984 4.0056 2.7984 5.2072C2.7984 6.4088 3.7728 7.3832 4.9744 7.3832C5.7924 7.3832 6.5054 6.9316 6.877 6.264L6.3524 5.9726C6.21588 6.21833 6.01611 6.42307 5.77382 6.5656C5.53152 6.70813 5.25551 6.78326 4.9744 6.7832C4.1038 6.7832 3.3984 6.0776 3.3984 5.2072C3.3984 4.3368 4.104 3.6312 4.9744 3.6312C5.20995 3.63083 5.44256 3.68346 5.655 3.7852L5.914 3.244ZM6.956 0.397V5.5494H6.334V0.18C5.9092 0.0626 5.46 0 5 0C2.2386 0 0 2.2386 0 5C0 7.7614 2.2386 10 5 10C7.7614 10 10 7.7614 10 5C10 2.9326 8.7452 1.158 6.9556 0.3968L6.956 0.397Z" fill="#0ABA9F"/>
</g>
<defs>
<clipPath id="clip0_5179_2439">
<rect width="60.8" height="10" fill="white"/>
</clipPath>
</defs>
</svg>
