<svg width="39" height="10" viewBox="0 0 39 10" fill="none" xmlns="http://www.w3.org/2000/svg">
<path d="M1.20703 9.07521V7.30151C2.30544 7.80828 3.23486 8.06168 3.9108 8.06168C4.79797 8.06168 5.22043 7.72381 5.22043 7.09034C5.22043 6.75251 5.0092 6.49911 4.629 6.20348C4.46 6.07681 4.0798 5.86564 3.48833 5.61224C2.89689 5.35888 2.47442 5.10548 2.22095 4.85208C1.6295 4.34531 1.29152 3.66961 1.29152 2.90945C1.29152 2.14929 1.545 1.51582 2.09421 1.05127C2.64341 0.58673 3.40383 0.333344 4.3755 0.333344C5.1782 0.333344 6.06537 0.5445 7.0793 0.966814L6.4456 2.44491C5.5584 2.10706 4.9247 1.8959 4.46 1.8959C3.9953 1.93813 3.65733 2.02259 3.48833 2.19152C3.27711 2.36044 3.19261 2.52937 3.19261 2.74053C3.19261 2.95168 3.23486 3.12061 3.31935 3.2473C3.40383 3.37401 3.5306 3.50068 3.69957 3.62738C3.86857 3.75408 4.33327 3.96524 5.05147 4.34531C5.8119 4.68318 6.31884 5.06324 6.65684 5.48554C6.9948 5.90788 7.12153 6.37241 7.12153 6.96364C7.12153 7.76604 6.8258 8.44174 6.23437 8.90628C5.6429 9.37084 4.84023 9.62421 3.8263 9.62421C2.8124 9.62421 1.96747 9.45531 1.20703 9.07521Z" fill="#7D62EC"/>
<path d="M8.6001 9.49752V2.57158H10.0365L10.2899 3.45842H10.3744C10.7969 2.78274 11.5151 2.44489 12.4868 2.44489C13.2894 2.44489 13.8809 2.65604 14.3034 3.07836C14.7258 3.50066 14.9793 4.17636 14.9793 4.97876V9.49752H13.0782V5.48552C13.0782 4.97876 12.9937 4.59869 12.8247 4.34529C12.6557 4.09189 12.36 3.96522 11.9798 3.96522C11.4728 3.96522 11.0504 4.13412 10.8391 4.47199C10.6279 4.80982 10.5012 5.40109 10.5012 6.20345V9.45529L8.6001 9.49752Z" fill="#7D62EC"/>
<path d="M16.5 6.03456C16.5 4.89429 16.7957 4.00746 17.3872 3.41619C17.9786 2.78274 18.7813 2.44489 19.8797 2.44489C20.5556 2.44489 21.1471 2.57158 21.6118 2.8672C22.1188 3.16282 22.499 3.58512 22.7947 4.09189C23.0482 4.64092 23.2172 5.27439 23.2172 5.99232C23.2172 7.13255 22.9214 8.01942 22.33 8.65289C21.7385 9.28636 20.8936 9.62419 19.8375 9.62419C19.1615 9.62419 18.5701 9.49752 18.0631 9.20189C17.5561 8.90625 17.1759 8.48395 16.8802 7.93495C16.6267 7.38595 16.5 6.75249 16.5 6.03456ZM18.739 4.47199C18.5278 4.80982 18.4011 5.31662 18.4011 5.99232C18.4011 6.66802 18.5278 7.21702 18.739 7.55485C18.9503 7.89272 19.3305 8.06165 19.8375 8.06165C20.3444 8.06165 20.7246 7.89272 20.9359 7.55485C21.1471 7.21702 21.2738 6.71025 21.2738 5.99232C21.2738 5.31662 21.1471 4.80982 20.9359 4.47199C20.7246 4.13412 20.3444 3.96522 19.8375 3.96522C19.3305 3.96522 18.9925 4.13412 18.739 4.47199Z" fill="#7D62EC"/>
<path d="M23.5132 2.57159H25.4988C26.0653 4.21751 27.1886 7.51264 27.1886 7.51264C27.1886 7.51264 28.309 4.02597 28.794 2.57159H30.7796L28.0758 9.49751H26.1325L23.5132 2.57159Z" fill="#7D62EC"/>
<g opacity="0.5">
<path d="M30.8643 9.49777L31.8782 4.89457H33.1033L32.1316 9.49777H30.8643ZM32.0472 3.79653C32.0472 3.54317 32.1316 3.37423 32.2584 3.24754C32.3851 3.12084 32.5541 3.07861 32.8076 3.07861C33.1456 3.07861 33.3568 3.24754 33.3568 3.5854C33.3568 3.79653 33.3145 3.96547 33.1878 4.1344C33.0611 4.2611 32.9343 4.34557 32.6809 4.34557C32.2584 4.30333 32.0472 4.1344 32.0472 3.79653Z" fill="#DDCDFF"/>
<path d="M34.075 9.11769C33.7374 8.77983 33.6104 8.35753 33.6104 7.80853C33.6104 7.25949 33.695 6.75273 33.906 6.28819C34.1174 5.82366 34.371 5.48579 34.751 5.23239C35.1314 4.97903 35.5537 4.85233 36.103 4.85233C36.61 4.85233 37.0324 5.02126 37.328 5.35909C37.624 5.69696 37.793 6.11926 37.793 6.71049C37.793 7.30173 37.7084 7.80853 37.497 8.23083C37.286 8.65313 37.0324 9.03323 36.6524 9.28659C36.272 9.53999 35.8497 9.66669 35.3427 9.66669C34.8357 9.66669 34.413 9.41329 34.075 9.11769ZM34.8357 7.80853C34.8357 8.31529 35.0467 8.56866 35.4694 8.56866C35.6807 8.56866 35.8497 8.48423 36.0184 8.31529C36.1874 8.14636 36.3144 7.89296 36.3987 7.59736C36.4834 7.30173 36.5254 6.96389 36.5254 6.62603C36.5254 6.07703 36.3144 5.82366 35.934 5.82366C35.7227 5.82366 35.5537 5.90809 35.3847 6.07703C35.2157 6.24596 35.089 6.49936 35.0047 6.79496C34.92 7.13283 34.8357 7.47066 34.8357 7.80853Z" fill="#DDCDFF"/>
</g>
</svg>
