<svg width="73" height="12" viewBox="0 0 73 12" fill="none" xmlns="http://www.w3.org/2000/svg">
<g clip-path="url(#clip0_5012_23144)">
<path d="M17.635 8.57879C18.571 8.57879 19.1345 8.23655 19.555 7.77359V8.50799H20.4608V0.959991H19.5598V4.27127C19.1374 3.78815 18.5758 3.45599 17.6398 3.45599C16.2814 3.45599 15.2446 4.57319 15.2446 6.02231C15.2446 7.45151 16.2814 8.57831 17.6398 8.57831L17.635 8.57879ZM17.8462 7.78367C16.88 7.78367 16.1554 7.00847 16.1554 6.02207C16.1554 5.02559 16.8802 4.25087 17.8462 4.25087C18.8122 4.25087 19.5574 5.02607 19.5574 6.02207C19.5574 7.00607 18.8127 7.78367 17.8462 7.78367ZM21.7136 8.50799H22.6193V5.88143C22.6193 4.86503 23.2433 4.32143 23.9278 4.32143C24.139 4.32143 24.3202 4.33151 24.5417 4.41191V3.45599C23.6657 3.43583 23.0221 3.65759 22.6217 4.21079V3.52631H21.716V8.50799H21.7136ZM27.5878 8.62919C29.047 8.62919 30.2247 7.46159 30.2247 6.01247C30.2247 4.55327 29.047 3.38567 27.5878 3.38567C27.2425 3.38424 26.9003 3.45121 26.5809 3.58271C26.2616 3.71422 25.9714 3.90765 25.7272 4.15186C25.483 4.39606 25.2896 4.68621 25.1581 5.00555C25.0266 5.32489 24.9596 5.66712 24.961 6.01247C24.961 7.46207 26.1284 8.62919 27.5878 8.62919ZM27.5878 7.78367C26.6317 7.78367 25.897 7.00847 25.897 6.02207C25.897 5.02559 26.6314 4.25087 27.5878 4.25087C28.5442 4.25087 29.2887 5.02607 29.2887 6.02207C29.2887 7.00607 28.5437 7.78367 27.5878 7.78367ZM31.1883 11.0244H32.0941V7.77599C32.5165 8.23919 33.0781 8.58119 34.0141 8.58119C35.3725 8.58119 36.4093 7.45391 36.4093 6.02519C36.4093 4.57559 35.3725 3.45887 34.0141 3.45887C33.0781 3.45887 32.5141 3.79103 32.0941 4.27415V3.52943H31.1883V11.0275V11.0244ZM33.805 7.78367C32.8388 7.78367 32.0938 7.00847 32.0938 6.02207C32.0938 5.02559 32.8385 4.25087 33.805 4.25087C34.7715 4.25087 35.4958 5.02607 35.4958 6.02207C35.4958 7.00607 34.771 7.78367 33.805 7.78367ZM39.6555 8.62919C40.531 8.62919 41.3163 8.20679 41.7915 7.54199L41.0667 7.00847C40.7749 7.48127 40.2514 7.78367 39.6579 7.78367C38.6816 7.77359 37.9371 7.00847 37.9371 6.02207C37.9371 5.02559 38.6818 4.25087 39.6579 4.25087C40.2416 4.26095 40.7547 4.56287 41.0571 5.02607L41.7915 4.48271C41.5489 4.1432 41.2287 3.86653 40.8576 3.67572C40.4865 3.48491 40.0752 3.38547 39.6579 3.38567C38.2287 3.38567 37.0412 4.55327 37.0412 6.01247C37.0412 7.46207 38.2287 8.62919 39.6579 8.62919H39.6555ZM44.9547 8.62919C46.4139 8.62919 47.5916 7.46159 47.5916 6.01247C47.5916 4.55327 46.4141 3.38567 44.9547 3.38567C44.6094 3.38424 44.2671 3.45121 43.9478 3.58271C43.6284 3.71422 43.3383 3.90765 43.0941 4.15186C42.8499 4.39606 42.6565 4.68621 42.525 5.00555C42.3934 5.32489 42.3265 5.66712 42.3279 6.01247C42.3279 7.46207 43.4955 8.62919 44.9547 8.62919ZM44.9547 7.78367C43.9985 7.78367 43.2639 7.00847 43.2639 6.02207C43.2639 5.02559 43.9983 4.25087 44.9547 4.25087C45.9111 4.25087 46.6556 5.02607 46.6556 6.02207C46.6556 7.00607 45.9109 7.78367 44.9547 7.78367ZM48.5547 8.50799H49.4605V6.05999C49.4605 4.89263 50.0749 4.24847 50.9401 4.24847C51.6949 4.24847 52.3393 4.76207 52.3393 6.01007V8.50607H53.245V5.94191C53.245 4.27151 52.3292 3.45599 51.0509 3.45599C50.7484 3.45531 50.4493 3.5207 50.1747 3.64759C49.9 3.77448 49.6563 3.95981 49.4607 4.19063V3.52631H48.5549V8.50799H48.5547ZM56.5515 8.52839C56.8416 8.52783 57.1299 8.48374 57.4069 8.39759L57.3061 7.61279C57.1249 7.66079 56.9336 7.70327 56.7421 7.70327C56.2289 7.70327 55.8464 7.46183 55.8464 6.81527V4.31927H57.2655V3.52415H55.8464V2.07455H54.9507V3.52415H53.7838V4.31927H54.9512V6.99839C54.9512 7.97471 55.6155 8.52839 56.5515 8.52839ZM60.3099 8.57639C61.2459 8.57639 61.8094 8.23415 62.2299 7.77119V8.50559H63.1357V3.52631H62.2299V4.27103C61.8075 3.78791 61.2459 3.45575 60.3099 3.45575C58.9515 3.45575 57.9147 4.57295 57.9147 6.02207C57.9147 7.45127 58.9515 8.57807 60.3099 8.57807V8.57639ZM60.5211 7.78127C59.5551 7.78127 58.8099 7.00607 58.8099 6.01967C58.8099 5.02319 59.5549 4.24847 60.5211 4.24847C61.4873 4.24847 62.2323 5.02367 62.2323 6.01967C62.2323 7.00367 61.4876 7.78127 60.5211 7.78127ZM66.6538 8.62679C67.5293 8.62679 68.3146 8.20439 68.7898 7.53959L68.065 7.00607C67.7732 7.47887 67.25 7.78127 66.6562 7.78127C65.6799 7.77119 64.9354 7.00607 64.9354 6.01967C64.9354 5.02319 65.6801 4.24847 66.6562 4.24847C67.2399 4.25855 67.753 4.56047 68.0554 5.02367L68.7898 4.48031C68.5472 4.1408 68.227 3.86413 67.8559 3.67332C67.4848 3.48251 67.0735 3.38307 66.6562 3.38327C65.227 3.38327 64.0393 4.55087 64.0393 6.01007C64.0416 6.70339 64.3181 7.36764 64.8084 7.85787C65.2986 8.3481 65.9629 8.62451 66.6562 8.62679H66.6538ZM71.9823 8.52599C72.2724 8.52543 72.5607 8.48133 72.8377 8.39519L72.7369 7.61039C72.5557 7.65839 72.3644 7.70087 72.1729 7.70087C71.6597 7.70087 71.2772 7.45943 71.2772 6.81287V4.31687H72.6963V3.52175H71.2772V2.07215H70.3815V3.52175H69.2139V4.31687H70.3815V6.99839C70.3815 7.97471 71.0458 8.52815 71.9818 8.52815L71.9823 8.52599Z" fill="#2E2E2E"/>
<path fill-rule="evenodd" clip-rule="evenodd" d="M7.0968 3.8928C6.74487 3.72419 6.35952 3.63692 5.96928 3.63744C4.52688 3.63744 3.35808 4.80672 3.35808 6.24864C3.35808 7.69056 4.52736 8.85984 5.96928 8.85984C6.95088 8.85984 7.80648 8.31792 8.2524 7.5168L7.62288 7.16712C7.45905 7.462 7.21933 7.70769 6.92858 7.87872C6.63782 8.04976 6.30661 8.13991 5.96928 8.13984C4.92456 8.13984 4.07808 7.29312 4.07808 6.24864C4.07808 5.20416 4.9248 4.35744 5.96928 4.35744C6.25194 4.35699 6.53107 4.42015 6.786 4.54224L7.0968 3.8928ZM8.3472 0.4764V6.65928H7.6008V0.216C7.09104 0.07512 6.552 0 6 0C2.68632 0 0 2.68632 0 6C0 9.31368 2.68632 12 6 12C9.31368 12 12 9.31368 12 6C12 3.51912 10.4942 1.3896 8.34672 0.47616L8.3472 0.4764Z" fill="#0ABA9F"/>
</g>
<defs>
<clipPath id="clip0_5012_23144">
<rect width="72.96" height="12" fill="white"/>
</clipPath>
</defs>
</svg>
