<svg width="39" height="10" viewBox="0 0 39 10" fill="none" xmlns="http://www.w3.org/2000/svg">
<g clip-path="url(#clip0_5179_2455)">
<path d="M12.3304 2.69135C11.5272 2.69135 10.9943 3.02607 10.7075 3.65116L10.687 2.78781H9.44336V9.70509H10.8154V7.09966C11.1178 7.60706 11.6196 7.88679 12.3304 7.88679C13.6868 7.88679 14.5571 6.85562 14.5571 5.28136C14.5571 3.71769 13.6868 2.69135 12.3304 2.69135ZM12.0075 6.68296C11.2646 6.68296 10.7687 6.10416 10.7687 5.28136C10.7687 4.45852 11.2608 3.91063 12.0075 3.91063C12.7543 3.91063 13.1744 4.43826 13.1744 5.28136C13.1744 6.12442 12.7495 6.68296 12.0075 6.68296Z" fill="white"/>
<path d="M17.5728 2.69135C15.9392 2.69135 14.9873 3.76786 14.9873 5.28616C14.9873 6.80449 15.9441 7.88679 17.5728 7.88679C19.2016 7.88679 20.1535 6.80546 20.1535 5.28616C20.1535 3.76689 19.2064 2.69135 17.5728 2.69135ZM17.5728 6.67813C16.8251 6.67813 16.3447 6.13986 16.3447 5.28616C16.3447 4.43249 16.8309 3.90483 17.5728 3.90483C18.3148 3.90483 18.7912 4.43346 18.7912 5.28616C18.7912 6.13889 18.3206 6.67813 17.5728 6.67813Z" fill="white"/>
<path d="M21.9521 0.796753H20.5801V7.88673H21.9521V0.796753Z" fill="white"/>
<path d="M23.7724 0.796753H22.4004V7.88673H23.7724V0.796753Z" fill="white"/>
<path d="M26.7926 2.69135C25.159 2.69135 24.207 3.76786 24.207 5.28616C24.207 6.80449 25.1638 7.88679 26.7926 7.88679C28.4213 7.88679 29.3723 6.80546 29.3723 5.28616C29.3723 3.76689 28.4252 2.69135 26.7926 2.69135ZM26.7926 6.67813C26.0448 6.67813 25.5635 6.13986 25.5635 5.28616C25.5635 4.43249 26.0497 3.90483 26.7926 3.90483C27.5355 3.90483 28.011 4.43346 28.011 5.28616C28.011 6.13889 27.5403 6.67813 26.7926 6.67813Z" fill="white"/>
<path d="M30.5036 6.40405C30.101 6.40405 29.7539 6.73492 29.7539 7.14295C29.7539 7.55099 30.1001 7.88572 30.5036 7.88572C30.9071 7.88572 31.2533 7.55099 31.2533 7.14295C31.2533 6.73492 30.9071 6.40405 30.5036 6.40405Z" fill="white"/>
<path d="M32.4739 0.751587C32.0237 0.751587 31.6338 1.11236 31.6338 1.55897C31.6338 2.00559 32.0121 2.37119 32.4739 2.37119C32.9358 2.37119 33.3238 2.00559 33.3238 1.55897C33.3238 1.11236 32.9241 0.751587 32.4739 0.751587Z" fill="white"/>
<path d="M33.165 2.88422H31.793V7.88672H33.165V2.88422Z" fill="white"/>
<path d="M36.2409 2.69135C34.6073 2.69135 33.6553 3.76786 33.6553 5.28616C33.6553 6.80449 34.6119 7.88679 36.2409 7.88679C37.8696 7.88679 38.8206 6.80546 38.8206 5.28616C38.8206 3.76689 37.8733 2.69135 36.2409 2.69135ZM36.2409 6.67813C35.4939 6.67813 35.0116 6.13986 35.0116 5.28616C35.0116 4.43249 35.4979 3.90483 36.2409 3.90483C36.9836 3.90483 37.4593 4.43346 37.4593 5.28616C37.4593 6.13889 36.9886 6.67813 36.2409 6.67813Z" fill="white"/>
<path d="M7.68366 1.18933H6.33496L7.03509 2.37774L7.68366 1.18933Z" fill="white"/>
<path d="M4.77147 0L0 7.88383H2.55541C2.89671 7.88383 3.23218 7.798 3.5278 7.6369C3.8477 7.4623 4.08983 7.2086 4.27847 6.9009C4.4992 6.5411 4.7141 6.17743 4.93093 5.8157L5.48713 4.88967L4.7695 3.6974L4.45153 4.20477C4.08883 4.80573 3.7456 5.42117 3.37027 6.0144C3.18162 6.3115 2.93463 6.5932 2.57096 6.66553C2.51651 6.67613 2.46011 6.68193 2.40372 6.68387C2.32884 6.68677 2.25397 6.68483 2.1791 6.68483L4.77147 2.3093L8.09797 7.9012H9.0606V7.07937L9.03823 7.0427L4.77147 0Z" fill="white"/>
</g>
<defs>
<clipPath id="clip0_5179_2455">
<rect width="39" height="10" fill="white"/>
</clipPath>
</defs>
</svg>
