<svg width="41" height="42" viewBox="0 0 41 42" fill="none" xmlns="http://www.w3.org/2000/svg">
<path d="M31.0888 13.7977V8.80669C32.3915 8.19124 33.3043 6.87329 33.3043 5.3437V5.22837C33.3043 3.11759 31.5771 1.39053 29.4664 1.39053H29.3512C27.2403 1.39053 25.5132 3.11759 25.5132 5.22837V5.3437C25.5132 6.87329 26.4261 8.19143 27.7288 8.80678V13.7978C25.7892 14.0975 24.0169 14.8975 22.5545 16.0748L8.85101 5.41473C8.94114 5.06758 9.00446 4.70991 9.00484 4.33458C9.00793 1.94372 7.07231 0.00309506 4.68136 3.45859e-06C2.2904 -0.00298627 0.34977 1.93272 0.346683 4.32358C0.343791 6.71444 2.2794 8.65506 4.67036 8.65806C5.44958 8.65903 6.17071 8.43773 6.80286 8.07822L20.2831 18.5648C19.1365 20.2952 18.4652 22.3681 18.4652 24.5994C18.4652 26.9356 19.2031 29.0963 20.4504 30.8737L16.3508 34.9733C16.0267 34.8761 15.6903 34.8081 15.3344 34.8081C13.3698 34.8081 11.777 36.4008 11.777 38.3654C11.777 40.3301 13.3698 41.9228 15.3344 41.9228C17.2991 41.9228 18.8918 40.3301 18.8918 38.3654C18.8918 38.0097 18.8238 37.6732 18.7265 37.3491L22.7817 33.294C24.6224 34.6992 26.9145 35.5432 29.4091 35.5432C35.453 35.5432 40.3526 30.6434 40.3526 24.5994C40.3526 19.128 36.3331 14.6077 31.0888 13.7977ZM29.4091 30.2101C26.3103 30.2101 23.798 27.6981 23.798 24.5994C23.798 21.5007 26.3103 18.9886 29.4091 18.9886C32.5075 18.9886 35.0198 21.5007 35.0198 24.5994C35.0198 27.6981 32.5075 30.2101 29.4091 30.2101Z" fill="#FF5C35"/>
</svg>
