<svg width="150" height="43" viewBox="0 0 150 43" fill="none" xmlns="http://www.w3.org/2000/svg">
<g clip-path="url(#clip0_6501_4510)">
<path d="M16.2452 24.0651H5.23055V35.6681H0V7.03857H5.23055V19.033H16.2452V7.03857H21.4746V35.6681H16.2452V24.0651Z" fill="#213343"/>
<path d="M38.2108 26.4141C38.2108 28.7986 36.2684 30.7387 33.8845 30.7387C31.4999 30.7387 29.5588 28.7986 29.5588 26.4141V14.1519H24.606V26.4141C24.606 31.53 28.7684 35.6914 33.8845 35.6914C38.9995 35.6914 43.162 31.53 43.162 26.4141V14.1519H38.2108V26.4141Z" fill="#213343"/>
<path d="M74.9629 15.4147C74.9629 12.9006 76.627 12.1034 78.4488 12.1034C79.9158 12.1034 81.857 13.2198 83.1235 14.5765L86.3716 10.7477C84.7485 8.55467 81.4605 7.03857 78.7663 7.03857C73.3771 7.03857 69.4942 10.1896 69.4942 15.4147C69.4942 25.1061 81.3416 22.0341 81.3416 27.4596C81.3416 29.1327 79.7177 30.6098 77.8561 30.6098C74.9232 30.6098 73.9718 29.174 72.6252 27.6582L69.019 31.4065C71.3184 34.2384 74.1703 35.6751 77.5779 35.6751C82.689 35.6751 86.8099 32.4843 86.8099 27.4981C86.8099 16.73 74.9629 20.0806 74.9629 15.4147Z" fill="#213343"/>
<path d="M148.255 31.0944C145.324 31.0944 144.493 29.8272 144.493 27.885V19.2878H149.048V14.9299H144.493V9.18408L139.462 11.4422V28.9551C139.462 33.4327 142.551 35.6916 146.789 35.6916C147.423 35.6916 148.296 35.6506 148.771 35.5332L150 31.0166C149.445 31.0549 148.812 31.0944 148.255 31.0944Z" fill="#213343"/>
<path d="M57.0899 14.2956C54.6331 14.2956 52.9183 15.0087 51.2622 16.6342V7.20947H46.2935V24.6763C46.2935 31.214 51.0202 35.6917 56.3311 35.6917C62.2349 35.6917 67.4076 31.1344 67.4076 24.994C67.4076 18.9314 62.6377 14.2956 57.0899 14.2956ZM57.059 30.691C53.9464 30.691 51.4234 28.1679 51.4234 25.0554C51.4234 21.9431 53.9464 19.4199 57.059 19.4199C60.1713 19.4199 62.6945 21.9431 62.6945 25.0554C62.6945 28.1679 60.1713 30.691 57.059 30.691Z" fill="#213343"/>
<path d="M111.034 24.7362C111.034 18.5958 105.861 14.0386 99.9571 14.0386C94.6461 14.0386 89.9194 18.5162 89.9194 25.0539V42.5208H94.8882V33.096C96.5443 34.7215 98.2591 35.4347 100.716 35.4347C106.264 35.4347 111.034 30.7988 111.034 24.7362ZM106.32 24.6748C106.32 27.7872 103.797 30.3103 100.685 30.3103C97.5723 30.3103 95.0493 27.7872 95.0493 24.6748C95.0493 21.5623 97.5723 19.0393 100.685 19.0393C103.797 19.0393 106.32 21.5623 106.32 24.6748Z" fill="#213343"/>
<path d="M127.089 13.7977V8.80669C128.391 8.19124 129.304 6.87329 129.304 5.3437V5.22837C129.304 3.11759 127.577 1.39053 125.466 1.39053H125.351C123.24 1.39053 121.513 3.11759 121.513 5.22837V5.3437C121.513 6.87329 122.426 8.19143 123.729 8.80678V13.7978C121.789 14.0975 120.017 14.8975 118.555 16.0748L104.851 5.41473C104.941 5.06758 105.004 4.70991 105.005 4.33458C105.008 1.94372 103.072 0.00309506 100.681 3.45859e-06C98.2904 -0.00298627 96.3498 1.93272 96.3467 4.32358C96.3438 6.71444 98.2794 8.65506 100.67 8.65806C101.45 8.65903 102.171 8.43773 102.803 8.07822L116.283 18.5648C115.137 20.2952 114.465 22.3681 114.465 24.5994C114.465 26.9356 115.203 29.0963 116.45 30.8737L112.351 34.9733C112.027 34.8761 111.69 34.8081 111.334 34.8081C109.37 34.8081 107.777 36.4008 107.777 38.3654C107.777 40.3301 109.37 41.9228 111.334 41.9228C113.299 41.9228 114.892 40.3301 114.892 38.3654C114.892 38.0097 114.824 37.6732 114.727 37.3491L118.782 33.294C120.622 34.6992 122.914 35.5432 125.409 35.5432C131.453 35.5432 136.353 30.6434 136.353 24.5994C136.353 19.128 132.333 14.6077 127.089 13.7977ZM125.409 30.2101C122.31 30.2101 119.798 27.6981 119.798 24.5994C119.798 21.5007 122.31 18.9886 125.409 18.9886C128.507 18.9886 131.02 21.5007 131.02 24.5994C131.02 27.6981 128.507 30.2101 125.409 30.2101Z" fill="#FF5C35"/>
</g>
<defs>
<clipPath id="clip0_6501_4510">
<rect width="150" height="42.5206" fill="white"/>
</clipPath>
</defs>
</svg>
