<svg width="12" height="12" viewBox="0 0 12 12" fill="none" xmlns="http://www.w3.org/2000/svg">
<path d="M6.00001 11.8333C2.77826 11.8333 0.166672 9.22171 0.166672 5.99996C0.166672 2.77821 2.77826 0.166626 6.00001 0.166626C9.22176 0.166626 11.8333 2.77821 11.8333 5.99996C11.8333 9.22171 9.22176 11.8333 6.00001 11.8333ZM6.00001 10.6666C7.23768 10.6666 8.42467 10.175 9.29984 9.29979C10.175 8.42462 10.6667 7.23764 10.6667 5.99996C10.6667 4.76228 10.175 3.5753 9.29984 2.70013C8.42467 1.82496 7.23768 1.33329 6.00001 1.33329C4.76233 1.33329 3.57534 1.82496 2.70017 2.70013C1.825 3.5753 1.33334 4.76228 1.33334 5.99996C1.33334 7.23764 1.825 8.42462 2.70017 9.29979C3.57534 10.175 4.76233 10.6666 6.00001 10.6666ZM5.41842 8.33329L2.94334 5.85821L3.76817 5.03338L5.41842 6.68363L8.71776 3.38371L9.54317 4.20854L5.41842 8.33329Z" fill="#FF8A00"/>
</svg>
