<svg width="20" height="20" viewBox="0 0 20 20" fill="none" xmlns="http://www.w3.org/2000/svg">
<g clip-path="url(#clip0_4417_1804)">
<path d="M18.3333 16.6667H1.66663V15.0001H2.49996V9.19258C2.49996 5.03591 5.85829 1.66675 9.99996 1.66675C14.1416 1.66675 17.5 5.03591 17.5 9.19258V15.0001H18.3333V16.6667ZM4.16663 15.0001H15.8333V9.19258C15.8333 5.95675 13.2216 3.33341 9.99996 3.33341C6.77829 3.33341 4.16663 5.95675 4.16663 9.19258V15.0001ZM7.91663 17.5001H12.0833C12.0833 18.0526 11.8638 18.5825 11.4731 18.9732C11.0824 19.3639 10.5525 19.5834 9.99996 19.5834C9.44742 19.5834 8.91752 19.3639 8.52682 18.9732C8.13612 18.5825 7.91663 18.0526 7.91663 17.5001Z" fill="white"/>
</g>
<defs>
<clipPath id="clip0_4417_1804">
<rect width="20" height="20" fill="white"/>
</clipPath>
</defs>
</svg>
