<svg width="177" height="40" viewBox="0 0 177 40" fill="none" xmlns="http://www.w3.org/2000/svg">
<g clip-path="url(#clip0_4417_1811)">
<path d="M14.9877 8.00146C11.4698 8.00146 9.43012 9.59579 8.45458 10.6587C8.33635 9.71389 7.71555 8.50338 5.29151 8.50338H0V13.9949H2.15799C2.51272 13.9949 2.63097 14.1131 2.63097 14.4673V39.5927H8.89801V30.2039V29.4953C9.87354 30.3811 11.7359 31.6211 14.6625 31.6211C20.7817 31.6211 25.0681 26.7791 25.0681 19.8113C25.0977 12.7549 21.0183 8.00146 14.9877 8.00146ZM13.7165 26.159C10.3465 26.159 8.80933 22.9408 8.80933 19.9294C8.80933 15.2055 11.3812 13.5226 13.8052 13.5226C16.7614 13.5226 18.7716 16.0617 18.7716 19.8704C18.7419 24.24 16.1997 26.159 13.7165 26.159Z" fill="#203232"/>
<path d="M33.5227 25.1843V11.8687C33.5227 9.62488 32.4288 8.53247 30.2117 8.53247H24.5951V14.0241H26.753C27.1078 14.0241 27.226 14.1421 27.226 14.4964V27.7529C27.226 30.0263 28.2902 31.0893 30.5369 31.0893H36.1536V25.6272H33.9956C33.6704 25.6567 33.5227 25.5091 33.5227 25.1843Z" fill="#203232"/>
<path d="M49.9 8.00146C46.3823 8.00146 44.3425 9.59579 43.3374 10.6587C43.2192 9.71389 42.5984 8.50338 40.1743 8.50338H34.9124V13.9949H37.0704C37.4251 13.9949 37.5434 14.1131 37.5434 14.4673V39.5927H43.8695V30.2039V29.4953C44.8451 30.3811 46.737 31.6211 49.6341 31.6211C55.7532 31.6211 60.0397 26.7791 60.0397 19.8113C60.0397 12.7549 55.9601 8.00146 49.9 8.00146ZM48.6289 26.159C45.259 26.159 43.7218 22.9408 43.7218 19.9294C43.7218 15.2055 46.2935 13.5226 48.7177 13.5226C51.6738 13.5226 53.6839 16.0617 53.6839 19.8704C53.6839 24.24 51.1417 26.159 48.6289 26.159Z" fill="#203232"/>
<path d="M71.8341 8.00146C65.0646 8.00146 60.3643 12.8731 60.3643 19.8113C60.3643 26.661 65.4488 31.6211 72.4845 31.6211C78.0125 31.6211 81.3825 28.3439 81.5303 28.2258L81.7964 27.9896L79.0767 23.4723L78.6629 23.8561C78.6333 23.8857 76.1501 26.159 72.8688 26.159C69.7353 26.159 67.4294 24.24 66.8678 21.2284H81.7372L81.7669 20.8151C81.7669 20.7561 81.9146 19.4274 81.9146 18.7779C81.9146 12.3416 77.8647 8.00146 71.8341 8.00146ZM67.1043 16.5635C67.7843 14.3493 69.4987 13.0797 71.8341 13.0797C73.7261 13.0797 75.1746 14.5264 75.4407 16.5635H67.1043Z" fill="#203232"/>
<path d="M104.737 25.1844V3.36582C104.737 1.12195 103.643 0.029541 101.396 0.029541H95.7795V5.5211H97.9374C98.2922 5.5211 98.4105 5.6392 98.4105 5.9935V9.94979C97.494 9.1231 95.6908 8.03069 92.5573 8.03069C86.4676 8.03069 82.2107 12.9023 82.2107 19.8405C82.2107 26.8968 86.2902 31.6504 92.3207 31.6504C95.7794 31.6504 97.7896 30.056 98.7652 28.934C98.8835 29.9084 99.5337 31.1484 101.869 31.1484H107.308V25.6864H105.21C104.855 25.6568 104.737 25.5093 104.737 25.1844ZM93.5327 26.1588C90.547 26.1588 88.6256 23.6787 88.6256 19.811C88.6256 16.0614 90.6358 13.5518 93.6215 13.5518C97.0211 13.5518 98.5286 16.6814 98.5286 19.7815C98.5286 24.5054 95.9569 26.1588 93.5327 26.1588Z" fill="#203232"/>
<path d="M121.291 8.2085C118.69 8.2085 116.266 9.71425 114.847 12.1057V11.6038C114.847 9.56663 113.723 8.50375 111.506 8.50375H106.126V13.9953H108.284C108.639 13.9953 108.757 14.1134 108.757 14.4677V31.09H115.024V22.0556C115.024 20.8746 115.172 19.7231 115.467 18.6602C116.413 15.5306 118.927 14.4381 120.936 14.4381C121.645 14.4381 122.178 14.5268 122.178 14.5268L122.71 14.6153V8.38564L122.325 8.32659C122.325 8.29707 121.794 8.2085 121.291 8.2085Z" fill="#203232"/>
<path d="M131.638 25.1843V11.8687C131.638 9.62488 130.544 8.53247 128.327 8.53247H123.242V14.0241H124.868C125.223 14.0241 125.341 14.1421 125.341 14.4964V27.7529C125.341 30.0263 126.405 31.0893 128.652 31.0893H134.268V25.6272H132.11C131.786 25.6567 131.638 25.5091 131.638 25.1843Z" fill="#203232"/>
<path d="M155.317 8.53247H151.976C150.025 8.53247 148.96 9.21153 148.34 10.8649L144.261 22.2614C144.112 22.6748 143.995 23.1471 143.876 23.6195C143.758 23.1766 143.61 22.6748 143.462 22.2614L139.383 10.8649C138.762 9.18201 137.757 8.53247 135.747 8.53247H132.199V14.0241H133.116C133.618 14.0241 133.765 14.2011 133.884 14.4964L140.211 31.1188H147.276L153.602 14.4964C153.72 14.2011 153.868 14.0241 154.37 14.0241H155.346V8.53247H155.317Z" fill="#203232"/>
<path d="M166.136 8.00146C159.366 8.00146 154.666 12.8731 154.666 19.8113C154.666 26.661 159.75 31.6211 166.786 31.6211C172.315 31.6211 175.684 28.3439 175.832 28.2258L176.098 27.9896L173.378 23.4723L172.964 23.8561C172.935 23.8857 170.452 26.159 167.2 26.159C164.066 26.159 161.761 24.24 161.199 21.2284H176.068L176.098 20.8151C176.098 20.7561 176.216 19.4274 176.216 18.7779C176.216 12.3416 172.166 8.00146 166.136 8.00146ZM161.405 16.5635C162.085 14.3493 163.8 13.0797 166.136 13.0797C168.028 13.0797 169.476 14.5264 169.743 16.5635H161.405Z" fill="#203232"/>
<path d="M33.0792 0H27.4921V5.87538H33.0792V0Z" fill="#203232"/>
<path d="M131.224 0H125.637V5.87538H131.224V0Z" fill="#203232"/>
</g>
<defs>
<clipPath id="clip0_4417_1811">
<rect width="176.216" height="40" fill="white"/>
</clipPath>
</defs>
</svg>
