<svg width="11" height="16" viewBox="0 0 11 16" fill="none" xmlns="http://www.w3.org/2000/svg">
<mask id="mask0_7523_4362" style="mask-type:luminance" maskUnits="userSpaceOnUse" x="0" y="0" width="11" height="16">
<path d="M6.87493 0H1.03456C0.4677 0 0.00390625 0.463794 0.00390625 1.03065V14.0856C0.00390625 14.6525 0.4677 15.1163 1.03456 15.1163H9.96689C10.5338 15.1163 10.9975 14.6525 10.9975 14.0856V4.12261L6.87493 0Z" fill="white"/>
</mask>
<g mask="url(#mask0_7523_4362)">
<path d="M6.87493 0H1.03456C0.4677 0 0.00390625 0.463794 0.00390625 1.03065V14.0856C0.00390625 14.6525 0.4677 15.1163 1.03456 15.1163H9.96689C10.5338 15.1163 10.9975 14.6525 10.9975 14.0856V4.12261L8.59269 2.40486L6.87493 0Z" fill="#0F9D58"/>
</g>
<mask id="mask1_7523_4362" style="mask-type:luminance" maskUnits="userSpaceOnUse" x="0" y="0" width="11" height="16">
<path d="M6.87493 0H1.03456C0.4677 0 0.00390625 0.463794 0.00390625 1.03065V14.0856C0.00390625 14.6525 0.4677 15.1163 1.03456 15.1163H9.96689C10.5338 15.1163 10.9975 14.6525 10.9975 14.0856V4.12261L6.87493 0Z" fill="white"/>
</mask>
<g mask="url(#mask1_7523_4362)">
<path d="M2.75195 7.3866V12.3681H8.24877V7.3866H2.75195ZM5.15681 11.681H3.43906V10.8221H5.15681V11.681ZM5.15681 10.3068H3.43906V9.4479H5.15681V10.3068ZM5.15681 8.93258H3.43906V8.0737H5.15681V8.93258ZM7.56167 11.681H5.84391V10.8221H7.56167V11.681ZM7.56167 10.3068H5.84391V9.4479H7.56167V10.3068ZM7.56167 8.93258H5.84391V8.0737H7.56167V8.93258Z" fill="#F1F1F1"/>
</g>
<mask id="mask2_7523_4362" style="mask-type:luminance" maskUnits="userSpaceOnUse" x="0" y="0" width="11" height="16">
<path d="M6.87493 0H1.03456C0.4677 0 0.00390625 0.463794 0.00390625 1.03065V14.0856C0.00390625 14.6525 0.4677 15.1163 1.03456 15.1163H9.96689C10.5338 15.1163 10.9975 14.6525 10.9975 14.0856V4.12261L6.87493 0Z" fill="white"/>
</mask>
<g mask="url(#mask2_7523_4362)">
<path d="M7.17578 3.82129L10.9969 7.64158V4.12276L7.17578 3.82129Z" fill="url(#paint0_linear_7523_4362)"/>
</g>
<mask id="mask3_7523_4362" style="mask-type:luminance" maskUnits="userSpaceOnUse" x="0" y="0" width="11" height="16">
<path d="M6.87493 0H1.03456C0.4677 0 0.00390625 0.463794 0.00390625 1.03065V14.0856C0.00390625 14.6525 0.4677 15.1163 1.03456 15.1163H9.96689C10.5338 15.1163 10.9975 14.6525 10.9975 14.0856V4.12261L6.87493 0Z" fill="white"/>
</mask>
<g mask="url(#mask3_7523_4362)">
<path d="M6.87305 -0.00012207V3.09184C6.87305 3.66128 7.33426 4.12249 7.9037 4.12249H10.9957L6.87305 -0.00012207Z" fill="#87CEAC"/>
</g>
<mask id="mask4_7523_4362" style="mask-type:luminance" maskUnits="userSpaceOnUse" x="0" y="0" width="11" height="16">
<path d="M6.87493 0H1.03456C0.4677 0 0.00390625 0.463794 0.00390625 1.03065V14.0856C0.00390625 14.6525 0.4677 15.1163 1.03456 15.1163H9.96689C10.5338 15.1163 10.9975 14.6525 10.9975 14.0856V4.12261L6.87493 0Z" fill="white"/>
</mask>
<g mask="url(#mask4_7523_4362)">
<path d="M1.03456 0C0.4677 0 0.00390625 0.463794 0.00390625 1.03065V1.11654C0.00390625 0.549682 0.4677 0.0858878 1.03456 0.0858878H6.87493V0H1.03456Z" fill="white" fill-opacity="0.2"/>
</g>
<mask id="mask5_7523_4362" style="mask-type:luminance" maskUnits="userSpaceOnUse" x="0" y="0" width="11" height="16">
<path d="M6.87493 0H1.03456C0.4677 0 0.00390625 0.463794 0.00390625 1.03065V14.0856C0.00390625 14.6525 0.4677 15.1163 1.03456 15.1163H9.96689C10.5338 15.1163 10.9975 14.6525 10.9975 14.0856V4.12261L6.87493 0Z" fill="white"/>
</mask>
<g mask="url(#mask5_7523_4362)">
<path d="M9.96689 15.0307H1.03456C0.4677 15.0307 0.00390625 14.5669 0.00390625 14V14.0859C0.00390625 14.6527 0.4677 15.1165 1.03456 15.1165H9.96689C10.5338 15.1165 10.9975 14.6527 10.9975 14.0859V14C10.9975 14.5669 10.5338 15.0307 9.96689 15.0307Z" fill="#263238" fill-opacity="0.2"/>
</g>
<mask id="mask6_7523_4362" style="mask-type:luminance" maskUnits="userSpaceOnUse" x="0" y="0" width="11" height="16">
<path d="M6.87493 0H1.03456C0.4677 0 0.00390625 0.463794 0.00390625 1.03065V14.0856C0.00390625 14.6525 0.4677 15.1163 1.03456 15.1163H9.96689C10.5338 15.1163 10.9975 14.6525 10.9975 14.0856V4.12261L6.87493 0Z" fill="white"/>
</mask>
<g mask="url(#mask6_7523_4362)">
<path d="M7.90565 4.12269C7.33622 4.12269 6.875 3.66148 6.875 3.09204V3.17793C6.875 3.74736 7.33622 4.20858 7.90565 4.20858H10.9976V4.12269H7.90565Z" fill="#263238" fill-opacity="0.1"/>
</g>
<path d="M6.87102 0.000366211H1.03065C0.463794 0.000366211 0 0.46416 0 1.03102V14.086C0 14.6528 0.463794 15.1166 1.03065 15.1166H9.96299C10.5298 15.1166 10.9936 14.6528 10.9936 14.086V4.12298L6.87102 0.000366211Z" fill="url(#paint1_radial_7523_4362)"/>
<defs>
<linearGradient id="paint0_linear_7523_4362" x1="198.254" y1="36.6227" x2="198.254" y2="385.903" gradientUnits="userSpaceOnUse">
<stop stop-color="#263238" stop-opacity="0.2"/>
<stop offset="1" stop-color="#263238" stop-opacity="0.02"/>
</linearGradient>
<radialGradient id="paint1_radial_7523_4362" cx="0" cy="0" r="1" gradientUnits="userSpaceOnUse" gradientTransform="translate(34.8284 29.8767) scale(1772.71 1772.71)">
<stop stop-color="white" stop-opacity="0.1"/>
<stop offset="1" stop-color="white" stop-opacity="0"/>
</radialGradient>
</defs>
</svg>
