<svg width="224" height="42" viewBox="0 0 224 42" fill="none" xmlns="http://www.w3.org/2000/svg">
<g clip-path="url(#clip0_4417_1857)">
<path d="M206.594 11.1571H211.548L220.332 25.9094H220.653L220.332 23.2947V11.1571H224V30.836H219.047L210.263 16.0838H209.941L210.263 18.6984V30.836H206.594V11.1571ZM192.402 10.5C198.614 10.5 203.087 15.0963 203.087 20.9863C203.087 26.8761 198.614 31.4724 192.402 31.4724C186.189 31.4724 181.717 26.8761 181.717 20.9863C181.717 15.0963 186.162 10.5 192.402 10.5ZM192.402 27.867C196.392 27.867 199.256 24.922 199.256 20.9863C199.256 17.0505 196.392 14.1056 192.402 14.1056C188.412 14.1056 185.546 17.0505 185.546 20.9863C185.546 24.922 188.412 27.867 192.402 27.867ZM174.514 11.1571H178.182V30.836H174.514V11.1571ZM154.564 11.1571H171.969V14.7626H165.115V30.836H161.445V14.7626H154.564V11.1571ZM140.988 11.1571H149.664L155.046 30.836H151.378L150.093 26.0746H140.505L139.22 30.836H135.552L140.988 11.1571ZM149.155 22.4966L147.094 14.7902H143.585L141.523 22.4966H149.155ZM118.681 11.1571H136.087V14.7626H129.232V30.836H125.563V14.7626H118.681V11.1571ZM104.462 24.9495C104.622 25.5275 104.917 26.0779 105.318 26.5184C106.041 27.3165 107.247 28.0596 109.416 28.0596C112.602 28.0596 113.887 26.7385 113.887 25.445C113.887 23.3533 110.781 22.8578 107.675 22.1697C104.542 21.4816 101.462 20.133 101.462 16.4174C101.462 13.3073 104.167 10.5 109.282 10.5C112.87 10.5 114.932 11.9862 116.11 13.445C116.806 14.3256 117.288 15.3166 117.583 16.3899H113.754C113.593 15.9771 113.352 15.5366 112.95 15.1789C112.308 14.5459 111.183 13.9404 109.282 13.9404C106.39 13.9404 105.292 14.9311 105.292 16.2247C105.292 17.711 107.059 18.3991 109.228 18.8394C112.897 19.5825 117.744 20.5184 117.744 25.2248C117.744 28.4999 114.905 31.445 109.442 31.445C105.399 31.445 103.123 29.8486 101.918 28.1697C101.221 27.2065 100.739 26.1055 100.525 24.8945H104.462V24.9495ZM93.5634 20.9863C93.5634 14.9037 88.7701 10.5 82.129 10.5H73.5868V31.5H82.129C88.7433 31.4724 93.5634 27.0689 93.5634 20.9863ZM79.6655 26.1605V15.8119H81.9685C85.155 15.8119 87.1634 17.7936 87.1634 20.9863C87.1634 24.1788 85.1817 26.1605 81.9685 26.1605H79.6655ZM66.8653 24.0688C67.508 23.7661 68.0971 23.2981 68.6326 22.7202C69.8376 21.4542 70.4267 19.8853 70.4267 18.0412C70.4267 13.5826 67.026 10.5 62.179 10.5H51.2V31.5H57.2786V25.445H61.0008L64.3213 31.5H70.4536L66.4903 24.2614L66.8653 24.0688ZM61.5899 20.4082H57.3055V15.6468H61.5899C63.0896 15.6468 64.2142 16.6652 64.2142 18.0138C64.2142 19.3899 63.0896 20.4082 61.5899 20.4082ZM20.4719 30.4709L40.9599 38.2445V31.2745L20.4719 23.501L0 31.2745V38.2445L20.4719 30.4709Z" fill="black"/>
<path d="M20.4719 30.4709L0 38.2444L7.59884 41.9999L20.4719 37.1128L33.3612 41.9999L40.9599 38.2444L20.4719 30.4709Z" fill="#19C1CE"/>
<path d="M20.4719 11.5292L0 3.75562V10.7256L20.4719 18.4991L40.9599 10.7256V3.75562L20.4719 11.5292Z" fill="black"/>
<path d="M20.4719 11.5291L40.9599 3.75554L33.3612 0L20.4719 4.8872L7.59884 0L0 3.75554L20.4719 11.5291Z" fill="#19C1CE"/>
</g>
<defs>
<clipPath id="clip0_4417_1857">
<rect width="224" height="42" fill="white"/>
</clipPath>
</defs>
</svg>
