
<!-- Generated by weiling.cn -->
<svg version="1.1" xmlns="http://www.w3.org/2000/svg" width="32" height="32" viewBox="0 0 32 32">
<path fill="currentColor" d="M6.848 5.406c2.54-2.201 5.79-3.411 9.152-3.406 7.732 0 14 6.268 14 14 0 2.99-0.938 5.762-2.534 8.036l-4.466-8.036h4.2c0-2.196-0.645-4.343-1.855-6.175s-2.933-3.268-4.952-4.129c-2.020-0.861-4.248-1.109-6.408-0.714s-4.156 1.417-5.74 2.937l-1.396-2.513zM25.152 26.594c-2.54 2.201-5.79 3.411-9.152 3.406-7.732 0-14-6.268-14-14 0-2.99 0.938-5.762 2.534-8.036l4.466 8.036h-4.2c-0 2.196 0.645 4.343 1.856 6.175s2.933 3.268 4.953 4.129c2.020 0.861 4.248 1.109 6.408 0.714s4.156-1.417 5.74-2.937l1.396 2.513z"></path>
</svg>
