<!-- Generated by weiling.cn -->
<svg version="1.1" xmlns="http://www.w3.org/2000/svg" width="32" height="32" viewBox="0 0 32 32">
<path fill="currentColor" d="M17.374 5.502c2.112 0 3.955 1.178 4.937 2.926 0.853-0.381 1.797-0.593 2.79-0.593 3.81 0 6.899 3.116 6.899 6.959s-3.089 6.959-6.899 6.959c-0.456 0-0.912-0.045-1.359-0.135-0.864 1.542-2.511 2.583-4.402 2.583-0.791 0-1.54-0.183-2.206-0.508-0.876 2.061-2.917 3.506-5.296 3.506-2.477 0-4.589-1.568-5.399-3.766-0.354 0.075-0.721 0.114-1.098 0.114-2.95 0-5.341-2.416-5.341-5.397 0-1.997 1.074-3.742 2.671-4.675-0.329-0.756-0.511-1.591-0.511-2.468 0-3.428 2.783-6.207 6.215-6.207 2.015 0 3.806 0.958 4.942 2.443 1.032-1.075 2.469-1.742 4.058-1.742zM4.782 16.083l-0.129 0.359h-0c-0.016 0.043-0.001 0.058 0.009 0.067 0.002 0.002 0.004 0.004 0.005 0.005 0.045 0.033 0.090 0.058 0.136 0.084 0.015 0.009 0.031 0.017 0.046 0.026 0.326 0.173 0.634 0.223 0.956 0.223 0.656 0 1.064-0.349 1.064-0.91v-0.011c0-0.519-0.46-0.708-0.892-0.845l-0.056-0.018c-0.325-0.106-0.605-0.197-0.605-0.411v-0.012c0-0.183 0.164-0.318 0.418-0.318 0.29 0.006 0.576 0.079 0.833 0.214 0 0 0.064 0.041 0.087-0.021l0.133-0.359c0.013-0.034-0.009-0.060-0.032-0.074-0.247-0.15-0.588-0.252-0.94-0.252l-0.066 0.001c-0.6 0-1.020 0.363-1.020 0.882v0.011c0 0.548 0.463 0.726 0.895 0.849l0.070 0.022c0.315 0.097 0.588 0.18 0.588 0.402v0.010c0 0.204-0.177 0.355-0.463 0.355-0.11 0-0.463-0.002-0.845-0.243-0.025-0.015-0.045-0.027-0.063-0.039-0.015-0.010-0.029-0.019-0.046-0.029-0.019-0.012-0.065-0.032-0.086 0.030zM14.386 16.083l-0.13 0.359c-0.017 0.043-0.001 0.058 0.009 0.067 0.002 0.002 0.004 0.004 0.005 0.005 0.045 0.033 0.090 0.058 0.136 0.084 0.016 0.009 0.031 0.018 0.047 0.027 0.326 0.173 0.634 0.223 0.956 0.223 0.656 0 1.063-0.349 1.063-0.91v-0.011c0-0.519-0.46-0.708-0.891-0.845l-0.056-0.018c-0.326-0.106-0.606-0.197-0.606-0.411v-0.012c0-0.183 0.164-0.318 0.418-0.318 0.291 0.006 0.576 0.079 0.834 0.214 0 0 0.063 0.041 0.087-0.021 0.012-0.034 0.121-0.327 0.133-0.359 0.012-0.034-0.010-0.060-0.032-0.074-0.247-0.15-0.588-0.252-0.941-0.252l-0.065 0.001c-0.6 0-1.020 0.363-1.020 0.882v0.011c0 0.548 0.463 0.726 0.896 0.849l0.070 0.022c0.315 0.097 0.588 0.18 0.588 0.402v0.011c0 0.204-0.177 0.355-0.462 0.355-0.111 0-0.464-0.002-0.846-0.243-0.029-0.017-0.050-0.030-0.070-0.044-0.012-0.008-0.025-0.016-0.038-0.024-0.012-0.007-0.067-0.029-0.086 0.030zM21.441 15.341c0-0.21-0.027-0.408-0.080-0.588-0.053-0.182-0.137-0.342-0.248-0.476s-0.254-0.242-0.421-0.32c-0.168-0.078-0.365-0.118-0.587-0.118s-0.419 0.040-0.587 0.118c-0.163 0.074-0.306 0.183-0.422 0.32-0.111 0.134-0.194 0.294-0.248 0.476-0.054 0.18-0.080 0.379-0.080 0.588-0.002 0.199 0.025 0.397 0.080 0.588 0.050 0.174 0.134 0.336 0.249 0.476 0.115 0.136 0.259 0.244 0.421 0.317 0.167 0.077 0.365 0.115 0.587 0.115s0.419-0.038 0.587-0.115c0.162-0.073 0.306-0.181 0.421-0.317 0.115-0.14 0.199-0.302 0.248-0.476 0.054-0.18 0.080-0.378 0.080-0.588zM20.638 14.599c0.117 0.175 0.175 0.424 0.175 0.742s-0.059 0.568-0.175 0.744c-0.115 0.175-0.29 0.261-0.534 0.261s-0.417-0.085-0.53-0.261c-0.115-0.176-0.173-0.428-0.173-0.744s0.058-0.567 0.173-0.742c0.114-0.173 0.287-0.257 0.531-0.257s0.418 0.084 0.534 0.257zM25.992 16.632l-0.134-0.372c-0.019-0.053-0.070-0.034-0.070-0.034-0.080 0.031-0.164 0.059-0.255 0.073-0.091 0.014-0.193 0.021-0.3 0.021-0.265 0-0.476-0.079-0.626-0.234s-0.236-0.408-0.235-0.749c0.001-0.31 0.076-0.544 0.21-0.722 0.133-0.177 0.337-0.267 0.608-0.267 0.226 0 0.398 0.026 0.579 0.083 0 0 0.043 0.019 0.064-0.038 0.017-0.048 0.033-0.092 0.049-0.134 0.027-0.075 0.053-0.147 0.086-0.24 0.015-0.042-0.021-0.060-0.034-0.065-0.071-0.028-0.239-0.073-0.366-0.093-0.118-0.018-0.256-0.027-0.411-0.027-0.229 0-0.435 0.039-0.61 0.117-0.168 0.073-0.319 0.182-0.441 0.32-0.118 0.134-0.207 0.294-0.266 0.476-0.059 0.18-0.090 0.379-0.090 0.589 0 0.454 0.123 0.821 0.365 1.090 0.243 0.27 0.607 0.407 1.082 0.407 0.28 0 0.568-0.057 0.776-0.138 0 0 0.040-0.020 0.022-0.065zM28.715 15.441c0.008-0.056 0.056-0.398-0.056-0.791-0.047-0.175-0.162-0.353-0.237-0.434-0.12-0.129-0.236-0.219-0.353-0.268-0.151-0.065-0.332-0.108-0.53-0.108-0.231 0-0.442 0.039-0.612 0.119-0.165 0.075-0.311 0.186-0.427 0.325-0.112 0.136-0.197 0.298-0.251 0.482-0.054 0.182-0.081 0.382-0.081 0.591-0.002 0.2 0.026 0.4 0.084 0.592 0.053 0.175 0.145 0.336 0.269 0.471 0.13 0.138 0.289 0.243 0.466 0.309 0.186 0.072 0.413 0.11 0.673 0.108 0.536-0.001 0.817-0.121 0.933-0.185 0.021-0.012 0.040-0.032 0.016-0.088l-0.121-0.34c-0.019-0.050-0.070-0.032-0.070-0.032-0.012 0.004-0.024 0.009-0.037 0.014-0.132 0.050-0.323 0.124-0.724 0.123-0.288-0-0.501-0.085-0.635-0.218-0.136-0.135-0.204-0.335-0.215-0.616l1.854 0.001c0 0 0.049-0.001 0.054-0.048 0-0.001 0.001-0.004 0.001-0.007zM28.138 15.037h-1.322c0.026-0.176 0.074-0.323 0.149-0.437 0.114-0.173 0.287-0.269 0.531-0.269s0.403 0.095 0.519 0.269c0.076 0.115 0.11 0.267 0.123 0.437zM13.87 15.441c0.008-0.055 0.055-0.398-0.057-0.791-0.046-0.175-0.161-0.353-0.237-0.434-0.119-0.129-0.236-0.219-0.352-0.268-0.168-0.072-0.348-0.108-0.531-0.108-0.231 0-0.442 0.039-0.612 0.119-0.165 0.075-0.31 0.187-0.427 0.325-0.115 0.142-0.201 0.306-0.251 0.482-0.054 0.182-0.081 0.382-0.081 0.591-0.002 0.2 0.026 0.4 0.084 0.592 0.053 0.175 0.145 0.336 0.268 0.471 0.13 0.137 0.289 0.243 0.467 0.309 0.186 0.072 0.412 0.11 0.673 0.108 0.535-0.001 0.817-0.121 0.934-0.185 0.020-0.012 0.040-0.032 0.015-0.088l-0.121-0.34c-0.019-0.050-0.070-0.032-0.070-0.032-0.012 0.004-0.024 0.009-0.036 0.014-0.132 0.050-0.324 0.124-0.725 0.123-0.288-0-0.5-0.085-0.634-0.218-0.137-0.135-0.204-0.335-0.216-0.616l1.854 0.001c0 0 0.049-0.001 0.054-0.048 0-0.001 0-0.004 0.001-0.007zM13.292 15.037h-1.323c0.027-0.176 0.074-0.323 0.15-0.437 0.114-0.173 0.287-0.269 0.53-0.269s0.404 0.095 0.519 0.269c0.076 0.115 0.109 0.267 0.123 0.437zM9.006 14.984c-0.159-0.023-0.306-0.036-0.306-0.036-0.076-0.006-0.173-0.008-0.289-0.008-0.159 0-0.312 0.020-0.457 0.058-0.139 0.036-0.269 0.097-0.386 0.179-0.113 0.081-0.203 0.184-0.269 0.306s-0.099 0.266-0.099 0.428c0 0.164 0.029 0.307 0.086 0.423 0.055 0.115 0.138 0.215 0.241 0.29 0.113 0.080 0.242 0.135 0.377 0.164 0.145 0.033 0.311 0.050 0.491 0.050 0.189 0 0.377-0.016 0.563-0.047 0.182-0.031 0.405-0.076 0.467-0.091s0.129-0.033 0.129-0.033c0.046-0.011 0.043-0.060 0.043-0.060l-0.001-1.696c0-0.372-0.099-0.647-0.294-0.818s-0.481-0.256-0.851-0.256c-0.167 0.002-0.333 0.017-0.497 0.046 0 0-0.404 0.079-0.571 0.209 0 0-0.037 0.023-0.016 0.074l0.131 0.353c0.016 0.046 0.061 0.030 0.061 0.030s0.014-0.006 0.030-0.015c0.357-0.194 0.808-0.188 0.808-0.188 0.2 0 0.355 0.041 0.458 0.12 0.101 0.078 0.152 0.194 0.152 0.442v0.078zM8.506 16.359c-0.377 0.023-0.545-0.108-0.544-0.108-0.073-0.058-0.083-0.072-0.106-0.11-0.037-0.057-0.056-0.138-0.056-0.242 0-0.162 0.054-0.279 0.165-0.358-0.001 0 0.16-0.139 0.537-0.134 0.266 0.004 0.503 0.043 0.503 0.043v0.843c0 0-0.235 0.050-0.5 0.066zM23.512 14.382c0.033-0.084 0.122-0.338 0.14-0.389 0.003-0.006 0.004-0.013 0.004-0.019s-0.001-0.013-0.004-0.020c-0.003-0.006-0.006-0.012-0.011-0.017s-0.010-0.008-0.017-0.011c-0.032-0.012-0.19-0.045-0.311-0.053-0.233-0.014-0.362 0.024-0.478 0.077s-0.242 0.136-0.313 0.231v-0.226c0-0.031-0.022-0.056-0.054-0.056h-0.475c-0.031 0-0.054 0.025-0.054 0.056v2.765c0 0.007 0.002 0.015 0.005 0.022s0.007 0.013 0.013 0.018 0.012 0.009 0.019 0.012c0.007 0.003 0.014 0.004 0.022 0.004h0.487c0.007 0 0.015-0.001 0.022-0.004s0.013-0.007 0.018-0.012c0.005-0.005 0.009-0.011 0.012-0.018s0.004-0.014 0.004-0.022v-1.381c0-0.185 0.021-0.37 0.062-0.486s0.095-0.207 0.163-0.273c0.064-0.064 0.142-0.111 0.229-0.137s0.182-0.035 0.248-0.035c0.097 0 0.204 0.024 0.204 0.024 0.036 0.004 0.056-0.018 0.067-0.050zM19.115 12.776c0.014-0.042-0.021-0.059-0.034-0.064-0.059-0.018-0.113-0.030-0.183-0.044-0.072-0.013-0.156-0.019-0.252-0.019-0.335 0-0.599 0.094-0.785 0.282-0.185 0.186-0.31 0.469-0.372 0.841l-0.023 0.125h-0.42c0 0-0.052-0.002-0.063 0.054l-0.069 0.386c-0.006 0.037 0.011 0.060 0.060 0.060h0.409l-0.416 2.32c-0.032 0.186-0.070 0.34-0.111 0.457-0.041 0.115-0.081 0.201-0.13 0.264-0.047 0.060-0.092 0.105-0.169 0.13-0.064 0.022-0.137 0.032-0.218 0.032-0.045 0-0.105-0.008-0.149-0.016s-0.067-0.018-0.1-0.032c0 0-0.048-0.018-0.067 0.029-0.015 0.040-0.124 0.34-0.137 0.377s0.005 0.066 0.028 0.074c0.055 0.020 0.112 0.037 0.17 0.050 0.103 0.024 0.191 0.026 0.272 0.026 0.17 0 0.326-0.024 0.455-0.071 0.132-0.050 0.25-0.132 0.342-0.238 0.108-0.119 0.176-0.244 0.241-0.415 0.073-0.202 0.127-0.411 0.163-0.623l0.417-2.363h0.611c0 0 0.051 0.002 0.062-0.054l0.069-0.386c0.005-0.037-0.011-0.060-0.061-0.060h-0.593c0.001-0.002 0.002-0.009 0.004-0.021 0.010-0.060 0.037-0.233 0.094-0.397 0.028-0.075 0.073-0.142 0.13-0.198 0.043-0.044 0.096-0.077 0.155-0.096s0.125-0.029 0.199-0.029c0.084 0 0.167 0.013 0.247 0.038 0.061 0.018 0.068 0.001 0.080-0.029l0.142-0.389zM10.746 16.777c0.031 0 0.053-0.025 0.053-0.056v-3.956c0-0.031-0.022-0.056-0.053-0.056h-0.492c-0.031 0-0.052 0.025-0.052 0.056v3.957c0 0.031 0.021 0.056 0.053 0.056h0.492z"></path>
</svg>
