<!-- Generated by weiling.cn -->
<svg version="1.1" xmlns="http://www.w3.org/2000/svg" width="32" height="32" viewBox="0 0 32 32">
<path fill="currentColor" d="M14.405 2c6.848 0 12.405 5.558 12.405 12.405s-5.558 12.405-12.405 12.405c-6.848 0-12.405-5.558-12.405-12.405s5.558-12.405 12.405-12.405zM14.405 24.054c5.33 0 9.649-4.318 9.649-9.649 0-5.332-4.318-9.649-9.649-9.649-5.332 0-9.649 4.317-9.649 9.649 0 5.33 4.317 9.649 9.649 9.649zM23.344 21.395l6.656 6.655-1.95 1.95-6.655-6.656 1.949-1.949z"></path>
</svg>
