<!-- Generated by weiling.cn -->
<svg version="1.1" xmlns="http://www.w3.org/2000/svg" width="32" height="32" viewBox="0 0 32 32">
<path fill="currentColor" d="M28.054 11.139h-2.595v-2.842l-10.286 9.212-10.473-9.241v15.289h12.975v2.595h-14.272c-0.344 0-0.674-0.137-0.917-0.38s-0.38-0.573-0.38-0.917v-20.759c0-0.344 0.137-0.674 0.38-0.917s0.573-0.38 0.917-0.38h23.354c0.344 0 0.674 0.137 0.917 0.38s0.38 0.573 0.38 0.917v7.043zM5.363 5.393l9.796 8.644 9.655-8.644h-19.45z"></path>
<path fill="currentColor" d="M29.708 13.85c0.208 0.197 0.216 0.484 0.15 0.717l-0.006 0.021-5.040 14.109c-0.032 0.109-0.079 0.217-0.15 0.306-0.075 0.094-0.192 0.184-0.351 0.198s-0.289-0.053-0.379-0.131c-0.089-0.076-0.156-0.176-0.208-0.28l-0.011-0.022-2.075-6.337-6.441-2.956c-0.104-0.043-0.206-0.1-0.287-0.177-0.084-0.081-0.169-0.209-0.162-0.376s0.101-0.288 0.189-0.362c0.088-0.074 0.197-0.125 0.308-0.162l13.734-4.66c0.234-0.078 0.522-0.084 0.73 0.113zM19.426 19.092l3.724 1.824 0.896 3.583 3.142-8.061-7.762 2.654z"></path>
</svg>
