<svg width="177" height="47" viewBox="0 0 177 47" fill="none" xmlns="http://www.w3.org/2000/svg">
<g clip-path="url(#clip0_4487_4208)">
<path d="M41.9707 32.206L41.9463 32.1286L57.3677 18.0106V11.2083H32.6267V18.0106H47.4045L47.4289 18.0758L32.1582 32.206V39.0083H57.6162V32.206H41.9707Z" fill="#201515"/>
<path d="M72.8053 10.5605C69.9516 10.5605 67.6257 10.9909 65.828 11.8518C64.1534 12.6019 62.7428 13.838 61.7792 15.3996C60.8574 16.9713 60.2785 18.7205 60.0806 20.5319L67.5877 21.5869C67.8592 19.9874 68.4023 18.8537 69.217 18.1857C70.1431 17.487 71.2842 17.134 72.443 17.1878C73.9667 17.1878 75.0719 17.595 75.7584 18.4097C76.4392 19.2244 76.7853 20.3526 76.7853 21.8394V22.5807H69.5673C65.8932 22.5807 63.2537 23.3954 61.6489 25.0247C60.044 26.654 59.2429 28.8047 59.2456 31.4768C59.2456 34.214 60.0467 36.2507 61.6489 37.5867C63.251 38.9227 65.266 39.5866 67.6936 39.5785C70.7051 39.5785 73.0217 38.5425 74.6425 36.4706C75.6003 35.1973 76.284 33.7398 76.6507 32.1896H76.9235L77.9582 38.9919H84.7603V21.7661C84.7603 18.206 83.8225 15.4485 81.946 13.4933C80.0696 11.5381 77.0224 10.5605 72.8053 10.5605ZM75.1845 31.7944C74.1049 32.6946 72.6913 33.1427 70.9318 33.1427C69.4817 33.1427 68.4743 32.8888 67.9095 32.381C67.6343 32.1407 67.4154 31.8429 67.2682 31.5085C67.1211 31.1741 67.0494 30.8114 67.0582 30.4462C67.0421 30.1018 67.0963 29.7577 67.2175 29.4349C67.3386 29.1121 67.5242 28.8173 67.7629 28.5685C68.021 28.3263 68.3256 28.1391 68.6581 28.018C68.9906 27.8969 69.3443 27.8444 69.6976 27.8637H76.7974V28.3322C76.8117 28.9943 76.6735 29.6509 76.3943 30.2512C76.1145 30.8515 75.7007 31.3796 75.1845 31.7944Z" fill="#201515"/>
<path d="M125.892 11.2083H117.856V39.0125H125.892V11.2083Z" fill="#201515"/>
<path d="M173.342 11.2083C171.071 11.2083 169.282 12.0093 167.973 13.6115C167.034 14.7629 166.319 16.4641 165.831 18.7153H165.594L164.543 11.2083H157.68V39.0083H165.717V24.7519C165.717 22.9543 166.138 21.5761 166.98 20.6175C167.821 19.6589 169.374 19.1797 171.639 19.1797H174.69V11.2083H173.342Z" fill="#201515"/>
<path d="M149.704 12.1166C147.829 11.0005 145.461 10.4438 142.605 10.4465C138.108 10.4465 134.589 11.7269 132.047 14.2877C129.505 16.8484 128.235 20.3786 128.235 24.8782C128.17 27.5986 128.764 30.2942 129.966 32.7355C131.066 34.911 132.779 36.7165 134.894 37.9289C137.023 39.1591 139.555 39.7755 142.491 39.7782C145.03 39.7782 147.151 39.3871 148.853 38.6051C150.454 37.9027 151.848 36.8019 152.902 35.4075C153.906 34.0388 154.651 32.4984 155.101 30.8618L148.177 28.9229C147.886 29.9871 147.324 30.958 146.548 31.7416C145.766 32.5237 144.455 32.9148 142.617 32.9148C140.431 32.9148 138.802 32.2888 137.729 31.037C136.951 30.1327 136.462 28.8414 136.247 27.1674H155.208C155.285 26.3852 155.326 25.7294 155.326 25.1999V23.4688C155.371 21.1432 154.891 18.8373 153.921 16.7235C153.012 14.7979 151.542 13.192 149.704 12.1166ZM142.373 17.0738C145.632 17.0738 147.479 18.6772 147.916 21.8843H136.389C136.572 20.8142 137.016 19.8057 137.68 18.9475C138.737 17.6957 140.301 17.0711 142.373 17.0738Z" fill="#201515"/>
<path d="M121.962 0.00260817C121.357 -0.0179535 120.754 0.0832284 120.19 0.300148C119.625 0.517067 119.11 0.845288 118.674 1.26531C118.246 1.68937 117.909 2.19802 117.687 2.75898C117.464 3.31994 117.361 3.92095 117.383 4.52393C117.362 5.13081 117.465 5.73566 117.688 6.30071C117.91 6.86577 118.247 7.37893 118.676 7.80812C119.106 8.23732 119.619 8.57337 120.185 8.79534C120.75 9.01731 121.355 9.12042 121.962 9.0982C122.565 9.12099 123.166 9.01795 123.727 8.79569C124.288 8.57337 124.796 8.23668 125.22 7.80699C125.641 7.37288 125.969 6.85828 126.185 6.29408C126.402 5.72988 126.501 5.12775 126.479 4.52393C126.507 3.92368 126.409 3.32422 126.192 2.76385C125.975 2.20347 125.644 1.6945 125.219 1.26941C124.794 0.844327 124.286 0.512474 123.725 0.295051C123.166 0.077629 122.566 -0.0205765 121.966 0.00668542L121.962 0.00260817Z" fill="#201515"/>
<path d="M105.359 10.4465C102.622 10.4465 100.422 11.306 98.7606 13.0249C97.5301 14.2985 96.6271 16.1993 96.0517 18.7275H95.7954L94.7443 11.2205H87.8809V47.0001H95.9172V32.263H96.2105C96.4555 33.2456 96.7995 34.2009 97.2367 35.1143C97.9168 36.6021 99.032 37.849 100.435 38.6906C101.889 39.4843 103.528 39.8792 105.184 39.8352C108.549 39.8352 111.11 38.525 112.87 35.9045C114.63 33.284 115.51 29.6276 115.51 24.9352C115.51 20.403 114.658 16.8552 112.956 14.2917C111.253 11.7283 108.721 10.4465 105.359 10.4465ZM106.174 30.5929C105.237 31.9507 103.77 32.6295 101.774 32.6295C100.952 32.6676 100.131 32.5089 99.3823 32.1668C98.6325 31.8246 97.9752 31.3089 97.4653 30.6622C96.4249 29.3561 95.9065 27.5678 95.9093 25.2977V24.7681C95.9093 22.4627 96.4277 20.6976 97.4653 19.4729C98.5021 18.2482 99.9392 17.6427 101.774 17.6562C103.806 17.6562 105.282 18.3012 106.202 19.591C107.123 20.8809 107.583 22.6799 107.583 24.9881C107.589 27.375 107.122 29.2433 106.182 30.5929H106.174Z" fill="#201515"/>
<path d="M29.0502 32.2058H1.24609V39.0163H29.0502V32.2058Z" fill="#FF4F00"/>
</g>
<defs>
<clipPath id="clip0_4487_4208">
<rect width="176.25" height="47" fill="white"/>
</clipPath>
</defs>
</svg>
