<svg width="130" height="58" viewBox="0 0 130 58" fill="none" xmlns="http://www.w3.org/2000/svg">
<path d="M58.1572 44.8144C57.1797 44.8144 56.1894 44.6113 55.2373 44.1924L34.9248 35.1406C31.2939 33.5283 29.6562 29.25 31.2686 25.6191L40.3203 5.30664C41.9326 1.67578 46.2109 0.0380818 49.8418 1.65039L70.1543 10.7021C73.7851 12.3144 75.4229 16.5928 73.8105 20.2236L64.7588 40.5361C63.5527 43.2275 60.9121 44.8144 58.1572 44.8144ZM56.9258 40.3838C58.4619 41.0693 60.2646 40.3711 60.9502 38.8477L70.002 18.5352C70.6875 16.999 69.9893 15.1963 68.4658 14.5107L48.1406 5.45898C46.6045 4.77343 44.8018 5.47168 44.1162 6.99511L35.0644 27.3076C34.3789 28.8437 35.0771 30.6465 36.6006 31.332L56.9258 40.3838Z" fill="#089949"/>
<path d="M121.875 44.8271H99.6328C95.6592 44.8271 92.4219 41.5898 92.4219 37.6162V15.374C92.4219 11.4004 95.6592 8.16309 99.6328 8.16309H121.875C125.849 8.16309 129.086 11.4004 129.086 15.374V37.6162C129.086 41.5898 125.849 44.8271 121.875 44.8271ZM99.6328 12.3271C97.957 12.3271 96.5859 13.6982 96.5859 15.374V37.6162C96.5859 39.292 97.957 40.6631 99.6328 40.6631H121.875C123.551 40.6631 124.922 39.292 124.922 37.6162V15.374C124.922 13.6982 123.551 12.3271 121.875 12.3271H99.6328Z" fill="#F9B21D"/>
<path d="M38.581 19.4493L35.585 26.1524C35.5469 26.2286 35.5088 26.2921 35.4707 26.3556L36.6387 33.5665C36.9053 35.2296 35.7754 36.7911 34.125 37.0577L12.1621 40.6124C11.3623 40.7393 10.5498 40.5489 9.88964 40.0792C9.22948 39.6095 8.79784 38.8985 8.67089 38.0987L5.1162 16.1358C4.98925 15.336 5.17968 14.5235 5.64941 13.8634C6.11913 13.2032 6.83007 12.7716 7.62987 12.6446L29.5928 9.08993C29.7578 9.06454 29.9228 9.05185 30.0752 9.05185C31.5351 9.05185 32.8428 10.1183 33.084 11.6163L34.2646 18.878L37.3623 11.9337L37.1973 10.9561C36.5625 7.03329 32.8555 4.35458 28.9326 4.98935L6.96972 8.54404C5.07812 8.83603 3.40233 9.86435 2.28515 11.4259C1.15526 12.9874 0.710928 14.8917 1.01562 16.796L4.5703 38.7589C4.87499 40.6632 5.90331 42.3263 7.46483 43.4561C8.69628 44.3575 10.1562 44.8145 11.667 44.8145C12.0478 44.8145 12.4414 44.7892 12.835 44.7257L34.7978 41.171C38.7207 40.5362 41.3994 36.8292 40.7646 32.9063L38.581 19.4493Z" fill="#E42527"/>
<path d="M64.9238 29.9355L68.1484 22.7119L67.2344 15.9961C67.1201 15.1963 67.3359 14.3965 67.831 13.749C68.3262 13.1015 69.0371 12.6826 69.8496 12.581L91.8887 9.58495C92.0283 9.57225 92.1679 9.55956 92.3076 9.55956C92.9678 9.55956 93.6025 9.77538 94.1484 10.1816C94.25 10.2578 94.3388 10.3467 94.4277 10.4228C95.4053 9.39452 96.6875 8.65819 98.1221 8.34081C97.7158 7.78221 97.2334 7.2871 96.6621 6.85546C95.126 5.68749 93.2344 5.19237 91.3301 5.44628L69.2656 8.44237C67.3613 8.69628 65.6601 9.68651 64.5049 11.2226C63.3369 12.7588 62.8418 14.6504 63.0957 16.5547L64.9238 29.9355Z" fill="#226DB4"/>
<path d="M102.426 33.6553L99.5312 12.3271C97.9062 12.3779 96.5986 13.7236 96.5986 15.3613V21.6201L98.3125 34.2139C98.4268 35.0137 98.2109 35.8135 97.7158 36.4609C97.2207 37.1084 96.5098 37.5273 95.6973 37.6289L73.6582 40.625C72.8584 40.7393 72.0586 40.5234 71.4111 40.0283C70.7637 39.5332 70.3447 38.8223 70.2432 38.0098L69.2275 30.5322L66.0029 37.7559L66.1172 38.5684C66.3711 40.4727 67.3613 42.1738 68.8975 43.3291C70.167 44.2939 71.6777 44.8018 73.252 44.8018C73.582 44.8018 73.9121 44.7764 74.2422 44.7383L96.2559 41.7676C98.1602 41.5137 99.8613 40.5234 101.017 38.9873C102.185 37.4512 102.68 35.5596 102.426 33.6553Z" fill="#226DB4"/>
<path d="M40.2441 55.377L43.3925 50.7305H40.8027C40.663 50.7305 40.5488 50.6162 40.5488 50.4766V49.8545C40.5488 49.7148 40.663 49.6006 40.8027 49.6006H45.0556C45.1953 49.6006 45.3095 49.7148 45.3095 49.8545V50.0957C45.3095 50.1465 45.2968 50.1973 45.2714 50.2354L42.1865 54.8818H44.9541C45.0937 54.8818 45.208 54.9961 45.208 55.1357V55.7578C45.208 55.8975 45.0937 56.0117 44.9541 56.0117H40.4599C40.3203 56.0117 40.206 55.8975 40.206 55.7578V55.5293C40.1933 55.4658 40.2187 55.415 40.2441 55.377Z" fill="black"/>
<path d="M53.498 52.7617C53.498 50.8574 54.8945 49.4863 56.7988 49.4863C58.7666 49.4863 60.0996 50.832 60.0996 52.7744C60.0996 54.7422 58.7412 56.1006 56.7734 56.1006C54.793 56.1006 53.498 54.7422 53.498 52.7617ZM58.5889 52.7871C58.5889 51.6318 58.0303 50.6416 56.7734 50.6416C55.5039 50.6416 55.0215 51.6699 55.0215 52.8379C55.0215 53.9424 55.6182 54.958 56.8369 54.958C58.0938 54.9453 58.5889 53.8662 58.5889 52.7871Z" fill="black"/>
<path d="M69.126 49.5879H70.0654C70.2051 49.5879 70.3193 49.7021 70.3193 49.8418V52.2031H72.9853V49.8418C72.9853 49.7021 73.0996 49.5879 73.2393 49.5879H74.1787C74.3183 49.5879 74.4326 49.7021 74.4326 49.8418V55.7451C74.4326 55.8848 74.3183 55.999 74.1787 55.999H73.2519C73.1123 55.999 72.998 55.8848 72.998 55.7451V53.3584H70.332V55.7451C70.332 55.8848 70.2178 55.999 70.0781 55.999H69.1387C68.999 55.999 68.8848 55.8848 68.8848 55.7451V49.8418C68.8721 49.7021 68.9863 49.5879 69.126 49.5879Z" fill="black"/>
<path d="M83.2051 52.7617C83.2051 50.8574 84.6016 49.4863 86.5059 49.4863C88.4736 49.4863 89.8066 50.832 89.8066 52.7744C89.8066 54.7422 88.4482 56.1006 86.4805 56.1006C84.5 56.1006 83.2051 54.7422 83.2051 52.7617ZM88.2832 52.7871C88.2832 51.6318 87.7246 50.6416 86.4678 50.6416C85.1982 50.6416 84.7158 51.6699 84.7158 52.8379C84.7158 53.9424 85.3125 54.958 86.5312 54.958C87.7881 54.9453 88.2832 53.8662 88.2832 52.7871Z" fill="black"/>
</svg>
